norounding.ufo
<glyph name="numbersign" format="1">
  <advance width="495.0"/>
  <unicode hex="0023"/>
  <outline>
    <contour>
      <point x="87.5" y="0.0" type="line"/>
      <point x="168.5" y="0.0" type="line"/>
      <point x="228.5" y="740.0" type="line"/>
      <point x="148.0" y="740.0" type="line"/>
    </contour>
    <contour>
      <point x="38.5" y="220.0" type="line"/>
      <point x="456.0" y="220.0" type="line"/>
      <point x="456.0" y="294.5" type="line"/>
      <point x="38.5" y="294.5" type="line"/>
    </contour>
    <contour>
      <point x="38.5" y="446.5" type="line"/>
      <point x="456.5" y="446.5" type="line"/>
      <point x="456.5" y="520.5" type="line"/>
      <point x="38.5" y="520.5" type="line"/>
    </contour>
    <contour>
      <point x="260.0" y="0.0" type="line"/>
      <point x="341.0" y="0.0" type="line"/>
      <point x="401.0" y="740.0" type="line"/>
      <point x="320.5" y="740.0" type="line"/>
    </contour>
  </outline>
</glyph>
<glyph name="ampersand" format="1">
  <advance width="624.0"/>
  <unicode hex="0026"/>
  <outline>
    <contour>
      <point x="571.0" y="69.0" type="line"/>
      <point x="576.0" y="69.0" type="line"/>
      <point x="618.0" y="161.0" type="line"/>
      <point x="618.0" y="166.0" type="line"/>
      <point x="377.5" y="326.5" type="line" smooth="yes"/>
      <point x="258.0" y="405.5"/>
      <point x="209.0" y="469.0"/>
      <point x="209.0" y="547.0" type="curve" smooth="yes"/>
      <point x="209.0" y="622.0"/>
      <point x="244.5" y="658.5"/>
      <point x="317.0" y="658.5" type="curve" smooth="yes"/>
      <point x="356.0" y="658.5"/>
      <point x="403.5" y="648.0"/>
      <point x="451.0" y="627.0" type="curve"/>
      <point x="455.5" y="627.0" type="line"/>
      <point x="470.0" y="713.0" type="line"/>
      <point x="470.0" y="718.0" type="line"/>
      <point x="410.0" y="741.5"/>
      <point x="359.5" y="752.0"/>
      <point x="309.0" y="752.0" type="curve" smooth="yes"/>
      <point x="174.0" y="752.0"/>
      <point x="99.5" y="685.0"/>
      <point x="99.5" y="561.5" type="curve" smooth="yes"/>
      <point x="99.5" y="446.0"/>
      <point x="158.5" y="366.0"/>
      <point x="336.0" y="238.0" type="curve" smooth="yes"/>
    </contour>
    <contour>
      <point x="278.0" y="-10.5" type="curve" smooth="yes"/>
      <point x="457.0" y="-10.5"/>
      <point x="555.5" y="113.5"/>
      <point x="555.5" y="342.5" type="curve" smooth="yes"/>
      <point x="555.5" y="416.5" type="line"/>
      <point x="457.0" y="410.5" type="line"/>
      <point x="457.0" y="341.5" type="line" smooth="yes"/>
      <point x="457.0" y="164.5"/>
      <point x="401.5" y="80.0"/>
      <point x="284.5" y="80.0" type="curve" smooth="yes"/>
      <point x="202.0" y="80.0"/>
      <point x="149.0" y="131.5"/>
      <point x="149.0" y="212.0" type="curve" smooth="yes"/>
      <point x="149.0" y="274.5"/>
      <point x="174.0" y="316.5"/>
      <point x="224.5" y="339.0" type="curve"/>
      <point x="184.5" y="410.5" type="line"/>
      <point x="172.5" y="401.5" type="line"/>
      <point x="86.5" y="374.5"/>
      <point x="37.5" y="304.0"/>
      <point x="37.5" y="205.5" type="curve" smooth="yes"/>
      <point x="37.5" y="72.0"/>
      <point x="130.0" y="-10.5"/>
    </contour>
  </outline>
</glyph>
<glyph name="five" format="1">
  <advance width="439.0"/>
  <unicode hex="0035"/>
  <outline>
    <contour>
      <point x="164.5" y="-12.0" type="curve" smooth="yes"/>
      <point x="319.0" y="-12.0"/>
      <point x="409.0" y="73.0"/>
      <point x="409.0" y="218.5" type="curve" smooth="yes"/>
      <point x="409.0" y="376.5"/>
      <point x="332.0" y="438.5"/>
      <point x="138.0" y="438.5" type="curve"/>
      <point x="147.0" y="396.0" type="line"/>
      <point x="167.5" y="696.0" type="line"/>
      <point x="126.0" y="643.0" type="line"/>
      <point x="371.0" y="643.0" type="line"/>
      <point x="371.0" y="740.0" type="line"/>
      <point x="74.0" y="740.0" type="line"/>
      <point x="48.5" y="358.5" type="line"/>
      <point x="52.5" y="354.5" type="line"/>
      <point x="112.5" y="354.5" type="line" smooth="yes"/>
      <point x="247.0" y="354.5"/>
      <point x="293.5" y="318.5"/>
      <point x="293.5" y="218.5" type="curve" smooth="yes"/>
      <point x="293.5" y="131.5"/>
      <point x="246.5" y="85.0"/>
      <point x="156.5" y="85.0" type="curve" smooth="yes"/>
      <point x="129.5" y="85.0"/>
      <point x="100.5" y="89.0"/>
      <point x="66.0" y="97.0" type="curve"/>
      <point x="41.5" y="97.0" type="line"/>
      <point x="41.5" y="3.0" type="line"/>
      <point x="91.0" y="-7.0"/>
      <point x="129.5" y="-12.0"/>
    </contour>
  </outline>
</glyph>
<glyph name="K" format="1">
  <advance width="588.0"/>
  <unicode hex="004B"/>
  <outline>
    <contour>
      <point x="297.5" y="0.0" type="move" name="bottom"/>
    </contour>
    <contour>
      <point x="65.5" y="0.0" type="line"/>
      <point x="180.0" y="0.0" type="line"/>
      <point x="180.0" y="328.0" type="line"/>
      <point x="258.5" y="328.0" type="line"/>
      <point x="462.0" y="0.0" type="line"/>
      <point x="590.5" y="0.0" type="line"/>
      <point x="376.5" y="349.0" type="line"/>
      <point x="326.0" y="374.5" type="line"/>
      <point x="326.0" y="380.0" type="line"/>
      <point x="375.0" y="406.5" type="line"/>
      <point x="570.0" y="740.0" type="line"/>
      <point x="441.5" y="740.0" type="line"/>
      <point x="259.0" y="426.0" type="line"/>
      <point x="180.0" y="426.0" type="line"/>
      <point x="180.0" y="740.0" type="line"/>
      <point x="65.5" y="740.0" type="line"/>
    </contour>
  </outline>
</glyph>
<glyph name="L" format="1">
  <advance width="433.0"/>
  <unicode hex="004C"/>
  <outline>
    <contour>
      <point x="133.0" y="782.5" type="move" name="topUC"/>
    </contour>
    <contour>
      <point x="341.5" y="370.0" type="move" name="periodcentered"/>
    </contour>
    <contour>
      <point x="365.5" y="707.0" type="move" name="caronalt"/>
    </contour>
    <contour>
      <point x="243.5" y="0.0" type="move" name="bottom"/>
    </contour>
    <contour>
      <point x="65.5" y="0.0" type="line"/>
      <point x="421.0" y="0.0" type="line"/>
      <point x="421.0" y="98.0" type="line"/>
      <point x="180.0" y="98.0" type="line"/>
      <point x="180.0" y="740.0" type="line"/>
      <point x="65.5" y="740.0" type="line"/>
    </contour>
  </outline>
</glyph>
<glyph name="N" format="1">
  <advance width="664.5"/>
  <unicode hex="004E"/>
  <outline>
    <contour>
      <point x="329.5" y="782.5" type="move" name="topUC"/>
    </contour>
    <contour>
      <point x="344.5" y="0.0" type="move" name="bottom"/>
    </contour>
    <contour>
      <point x="65.5" y="0.0" type="line"/>
      <point x="169.0" y="0.0" type="line"/>
      <point x="169.0" y="542.0" type="line"/>
      <point x="176.5" y="542.5" type="line"/>
      <point x="218.0" y="458.5" type="line"/>
      <point x="500.0" y="0.0" type="line"/>
      <point x="599.0" y="0.0" type="line"/>
      <point x="599.0" y="740.0" type="line"/>
      <point x="495.5" y="740.0" type="line"/>
      <point x="495.5" y="199.0" type="line"/>
      <point x="488.0" y="198.5" type="line"/>
      <point x="447.0" y="281.0" type="line"/>
      <point x="164.5" y="740.0" type="line"/>
      <point x="65.5" y="740.0" type="line"/>
    </contour>
  </outline>
</glyph>
<glyph name="Q" format="1">
  <advance width="634.5"/>
  <unicode hex="0051"/>
  <outline>
    <contour>
      <point x="550.0" y="-121.0" type="curve"/>
      <point x="610.5" y="-29.0" type="line"/>
      <point x="496.5" y="-20.5"/>
      <point x="424.0" y="-9.5"/>
      <point x="363.0" y="12.0" type="curve"/>
      <point x="363.0" y="21.5" type="line"/>
      <point x="520.5" y="46.5"/>
      <point x="597.5" y="160.5"/>
      <point x="597.5" y="369.0" type="curve" smooth="yes"/>
      <point x="597.5" y="626.0"/>
      <point x="506.5" y="750.0"/>
      <point x="316.5" y="750.0" type="curve" smooth="yes"/>
      <point x="126.5" y="750.0"/>
      <point x="36.0" y="626.5"/>
      <point x="36.0" y="369.0" type="curve" smooth="yes"/>
      <point x="36.0" y="59.0"/>
      <point x="169.5" y="-38.0"/>
    </contour>
    <contour>
      <point x="316.5" y="84.0" type="curve" smooth="yes"/>
      <point x="196.0" y="84.0"/>
      <point x="150.5" y="161.5"/>
      <point x="150.5" y="369.0" type="curve" smooth="yes"/>
      <point x="150.5" y="577.5"/>
      <point x="196.5" y="656.0"/>
      <point x="316.5" y="656.0" type="curve" smooth="yes"/>
      <point x="435.5" y="656.0"/>
      <point x="483.0" y="575.5"/>
      <point x="483.0" y="369.0" type="curve" smooth="yes"/>
      <point x="483.0" y="162.5"/>
      <point x="437.0" y="84.0"/>
    </contour>
  </outline>
</glyph>
<glyph name="U" format="1">
  <advance width="645.5"/>
  <unicode hex="0055"/>
  <outline>
    <contour>
      <point x="367.0" y="-3.0" type="move" name="ogonek"/>
    </contour>
    <contour>
      <point x="319.0" y="782.5" type="move" name="topUC"/>
    </contour>
    <contour>
      <point x="323.5" y="0.0" type="move" name="bottom"/>
    </contour>
    <contour>
      <point x="323.0" y="-10.0" type="curve" smooth="yes"/>
      <point x="513.5" y="-10.0"/>
      <point x="585.5" y="83.0"/>
      <point x="585.5" y="287.0" type="curve" smooth="yes"/>
      <point x="585.5" y="739.5" type="line"/>
      <point x="471.0" y="739.5" type="line"/>
      <point x="471.0" y="292.5" type="line" smooth="yes"/>
      <point x="471.0" y="146.5"/>
      <point x="429.0" y="88.5"/>
      <point x="323.0" y="88.5" type="curve" smooth="yes"/>
      <point x="217.5" y="88.5"/>
      <point x="174.5" y="147.5"/>
      <point x="174.5" y="292.5" type="curve" smooth="yes"/>
      <point x="174.5" y="739.5" type="line"/>
      <point x="60.0" y="739.5" type="line"/>
      <point x="60.0" y="287.0" type="line" smooth="yes"/>
      <point x="60.0" y="84.0"/>
      <point x="132.5" y="-10.0"/>
    </contour>
  </outline>
</glyph>
<glyph name="V" format="1">
  <advance width="587.0"/>
  <unicode hex="0056"/>
  <outline>
    <contour>
      <point x="216.0" y="0.0" type="line"/>
      <point x="372.0" y="0.0" type="line"/>
      <point x="584.5" y="740.0" type="line"/>
      <point x="474.0" y="740.0" type="line"/>
      <point x="330.5" y="247.0" type="line"/>
      <point x="300.0" y="105.5" type="line"/>
      <point x="288.0" y="105.5" type="line"/>
      <point x="258.5" y="247.0" type="line"/>
      <point x="114.0" y="740.0" type="line"/>
      <point x="1.5" y="740.0" type="line"/>
    </contour>
  </outline>
</glyph>
<glyph name="W" format="1">
  <advance width="898.0"/>
  <unicode hex="0057"/>
  <outline>
    <contour>
      <point x="449.0" y="782.5" type="move" name="topUC"/>
    </contour>
    <contour>
      <point x="180.0" y="0.0" type="line"/>
      <point x="317.0" y="0.0" type="line"/>
      <point x="429.5" y="456.0" type="line"/>
      <point x="447.0" y="576.0" type="line"/>
      <point x="455.0" y="576.0" type="line"/>
      <point x="471.0" y="456.0" type="line"/>
      <point x="577.5" y="0.0" type="line"/>
      <point x="714.0" y="0.0" type="line"/>
      <point x="892.5" y="740.0" type="line"/>
      <point x="766.5" y="740.0" type="line"/>
      <point x="665.5" y="252.0" type="line"/>
      <point x="646.0" y="139.0" type="line"/>
      <point x="636.0" y="139.0" type="line"/>
      <point x="616.0" y="252.0" type="line"/>
      <point x="508.5" y="740.0" type="line"/>
      <point x="395.0" y="740.0" type="line"/>
      <point x="281.0" y="252.0" type="line"/>
      <point x="259.5" y="139.0" type="line"/>
      <point x="249.5" y="139.0" type="line"/>
      <point x="231.5" y="252.0" type="line"/>
      <point x="136.5" y="740.0" type="line"/>
      <point x="9.5" y="740.0" type="line"/>
    </contour>
  </outline>
</glyph>
<glyph name="underscore" format="1">
  <advance width="510.0"/>
  <unicode hex="005F"/>
  <outline>
    <contour>
      <point x="37.5" y="-145.0" type="line"/>
      <point x="472.5" y="-145.0" type="line"/>
      <point x="472.5" y="-60.0" type="line"/>
      <point x="37.5" y="-60.0" type="line"/>
    </contour>
  </outline>
</glyph>
<glyph name="f" format="1">
  <advance width="313.5"/>
  <unicode hex="0066"/>
  <outline>
    <contour>
      <point x="87.5" y="0.0" type="line"/>
      <point x="199.5" y="0.0" type="line"/>
      <point x="199.5" y="445.5" type="line"/>
      <point x="303.5" y="445.5" type="line"/>
      <point x="303.5" y="540.0" type="line"/>
      <point x="199.5" y="540.0" type="line"/>
      <point x="199.5" y="582.0" type="line" smooth="yes"/>
      <point x="199.5" y="688.5"/>
      <point x="225.0" y="717.0"/>
      <point x="326.5" y="726.0" type="curve"/>
      <point x="320.5" y="812.5" type="line"/>
      <point x="143.5" y="803.0"/>
      <point x="88.0" y="747.0"/>
      <point x="88.0" y="574.0" type="curve" smooth="yes"/>
      <point x="88.0" y="540.0" type="line"/>
      <point x="13.5" y="540.0" type="line"/>
      <point x="13.5" y="445.5" type="line"/>
      <point x="87.5" y="445.5" type="line"/>
    </contour>
  </outline>
</glyph>
<glyph name="m" format="1">
  <advance width="779.0"/>
  <unicode hex="006D"/>
  <outline>
    <contour>
      <point x="55.5" y="0.0" type="line"/>
      <point x="165.0" y="0.0" type="line"/>
      <point x="165.0" y="408.5" type="line"/>
      <point x="205.5" y="436.5"/>
      <point x="244.0" y="451.0"/>
      <point x="276.5" y="451.0" type="curve" smooth="yes"/>
      <point x="317.5" y="451.0"/>
      <point x="336.0" y="427.0"/>
      <point x="336.0" y="372.0" type="curve" smooth="yes"/>
      <point x="336.0" y="0.0" type="line"/>
      <point x="445.5" y="0.0" type="line"/>
      <point x="445.5" y="408.5" type="line"/>
      <point x="486.5" y="436.0"/>
      <point x="525.0" y="451.0"/>
      <point x="557.0" y="451.0" type="curve" smooth="yes"/>
      <point x="598.0" y="451.0"/>
      <point x="616.5" y="427.0"/>
      <point x="616.5" y="372.0" type="curve" smooth="yes"/>
      <point x="616.5" y="0.0" type="line"/>
      <point x="726.0" y="0.0" type="line"/>
      <point x="726.0" y="407.0" type="line" smooth="yes"/>
      <point x="726.0" y="503.0"/>
      <point x="687.0" y="550.0"/>
      <point x="608.0" y="550.0" type="curve" smooth="yes"/>
      <point x="554.0" y="550.0"/>
      <point x="506.5" y="531.0"/>
      <point x="439.0" y="481.0" type="curve"/>
      <point x="433.5" y="481.0" type="line"/>
      <point x="416.5" y="528.0"/>
      <point x="382.0" y="550.0"/>
      <point x="327.5" y="550.0" type="curve" smooth="yes"/>
      <point x="275.0" y="550.0"/>
      <point x="229.5" y="532.0"/>
      <point x="157.5" y="482.0" type="curve"/>
      <point x="154.0" y="482.0" type="line"/>
      <point x="147.0" y="540.0" type="line"/>
      <point x="55.5" y="540.0" type="line"/>
    </contour>
  </outline>
</glyph>
<glyph name="o" format="1">
  <advance width="508.0"/>
  <unicode hex="006F"/>
  <outline>
    <contour>
      <point x="250.0" y="600.0" type="move" name="top"/>
    </contour>
    <contour>
      <point x="315.0" y="8.5" type="move" name="ogonek"/>
    </contour>
    <contour>
      <point x="254.0" y="0.0" type="move" name="bottom"/>
    </contour>
    <contour>
      <point x="254.0" y="-9.5" type="curve" smooth="yes"/>
      <point x="398.5" y="-9.5"/>
      <point x="474.5" y="87.0"/>
      <point x="474.5" y="270.0" type="curve" smooth="yes"/>
      <point x="474.5" y="453.0"/>
      <point x="398.5" y="550.0"/>
      <point x="254.0" y="550.0" type="curve" smooth="yes"/>
      <point x="110.0" y="550.0"/>
      <point x="33.5" y="453.0"/>
      <point x="33.5" y="270.0" type="curve" smooth="yes"/>
      <point x="33.5" y="87.5"/>
      <point x="109.5" y="-9.5"/>
    </contour>
    <contour>
      <point x="254.0" y="79.0" type="curve" smooth="yes"/>
      <point x="176.0" y="79.0"/>
      <point x="146.5" y="129.0"/>
      <point x="146.5" y="270.0" type="curve" smooth="yes"/>
      <point x="146.5" y="411.5"/>
      <point x="176.0" y="461.5"/>
      <point x="254.0" y="461.5" type="curve" smooth="yes"/>
      <point x="331.5" y="461.5"/>
      <point x="361.5" y="411.5"/>
      <point x="361.5" y="270.0" type="curve" smooth="yes"/>
      <point x="361.5" y="128.5"/>
      <point x="332.0" y="79.0"/>
    </contour>
  </outline>
</glyph>
<glyph name="q" format="1">
  <advance width="508.5"/>
  <unicode hex="0071"/>
  <outline>
    <contour>
      <point x="342.0" y="-220.0" type="line"/>
      <point x="453.5" y="-220.0" type="line"/>
      <point x="453.5" y="525.5" type="line"/>
      <point x="392.0" y="541.5"/>
      <point x="334.5" y="549.0"/>
      <point x="279.5" y="549.0" type="curve" smooth="yes"/>
      <point x="116.5" y="549.0"/>
      <point x="34.0" y="450.5"/>
      <point x="34.0" y="259.5" type="curve" smooth="yes"/>
      <point x="34.0" y="78.5"/>
      <point x="91.0" y="-9.0"/>
      <point x="208.5" y="-9.0" type="curve" smooth="yes"/>
      <point x="264.5" y="-9.0"/>
      <point x="309.0" y="11.5"/>
      <point x="342.0" y="53.0" type="curve"/>
    </contour>
    <contour>
      <point x="245.0" y="73.5" type="curve" smooth="yes"/>
      <point x="175.5" y="73.5"/>
      <point x="146.5" y="130.5"/>
      <point x="146.5" y="275.5" type="curve" smooth="yes"/>
      <point x="146.5" y="416.5"/>
      <point x="181.5" y="470.5"/>
      <point x="271.5" y="470.5" type="curve" smooth="yes"/>
      <point x="295.0" y="470.5"/>
      <point x="313.5" y="468.0"/>
      <point x="341.5" y="460.0" type="curve"/>
      <point x="341.5" y="216.0" type="line" smooth="yes"/>
      <point x="341.5" y="117.0"/>
      <point x="302.0" y="73.5"/>
    </contour>
  </outline>
</glyph>
<glyph name="s" format="1">
  <advance width="396.5"/>
  <unicode hex="0073"/>
  <outline>
    <contour>
      <point x="202.0" y="600.0" type="move" name="top"/>
    </contour>
    <contour>
      <point x="194.5" y="0.0" type="move" name="bottom"/>
    </contour>
    <contour>
      <point x="182.5" y="-10.5" type="curve" smooth="yes"/>
      <point x="297.5" y="-10.5"/>
      <point x="368.0" y="53.0"/>
      <point x="368.0" y="154.5" type="curve" smooth="yes"/>
      <point x="368.0" y="272.0"/>
      <point x="295.5" y="297.5"/>
      <point x="218.0" y="316.5" type="curve" smooth="yes"/>
      <point x="176.0" y="327.0"/>
      <point x="142.5" y="340.5"/>
      <point x="142.5" y="392.5" type="curve" smooth="yes"/>
      <point x="142.5" y="437.0"/>
      <point x="175.5" y="464.0"/>
      <point x="231.0" y="464.0" type="curve" smooth="yes"/>
      <point x="261.0" y="464.0"/>
      <point x="287.5" y="460.5"/>
      <point x="345.0" y="447.0" type="curve"/>
      <point x="345.0" y="532.5" type="line"/>
      <point x="292.0" y="545.0"/>
      <point x="248.5" y="551.0"/>
      <point x="209.0" y="551.0" type="curve" smooth="yes"/>
      <point x="101.5" y="551.0"/>
      <point x="38.0" y="490.0"/>
      <point x="38.0" y="388.0" type="curve" smooth="yes"/>
      <point x="38.0" y="250.5"/>
      <point x="124.0" y="238.0"/>
      <point x="187.0" y="225.5" type="curve" smooth="yes"/>
      <point x="238.5" y="213.5"/>
      <point x="261.0" y="189.5"/>
      <point x="261.0" y="147.5" type="curve" smooth="yes"/>
      <point x="261.0" y="101.5"/>
      <point x="231.5" y="74.5"/>
      <point x="178.5" y="74.5" type="curve" smooth="yes"/>
      <point x="133.0" y="74.5"/>
      <point x="77.0" y="84.5"/>
      <point x="35.0" y="99.5" type="curve"/>
      <point x="35.0" y="14.0" type="line"/>
      <point x="91.5" y="-2.5"/>
      <point x="138.0" y="-10.5"/>
    </contour>
  </outline>
</glyph>
<glyph name="v" format="1">
  <advance width="489.0"/>
  <unicode hex="0076"/>
  <outline>
    <contour>
      <point x="177.0" y="0.0" type="line"/>
      <point x="312.0" y="0.0" type="line"/>
      <point x="481.5" y="533.5" type="line"/>
      <point x="481.5" y="540.0" type="line"/>
      <point x="367.0" y="540.0" type="line"/>
      <point x="259.5" y="162.0" type="line"/>
      <point x="248.0" y="99.0" type="line"/>
      <point x="241.0" y="99.0" type="line"/>
      <point x="230.0" y="162.0" type="line"/>
      <point x="122.5" y="540.0" type="line"/>
      <point x="8.0" y="540.0" type="line"/>
      <point x="8.0" y="533.5" type="line"/>
    </contour>
  </outline>
</glyph>
<glyph name="x" format="1">
  <advance width="489.0"/>
  <unicode hex="0078"/>
  <outline>
    <contour>
      <point x="7.5" y="0.0" type="line"/>
      <point x="125.5" y="0.0" type="line"/>
      <point x="225.5" y="185.5" type="line"/>
      <point x="239.5" y="219.5" type="line"/>
      <point x="246.5" y="219.5" type="line"/>
      <point x="261.0" y="185.5" type="line"/>
      <point x="363.5" y="0.0" type="line"/>
      <point x="481.0" y="0.0" type="line"/>
      <point x="481.0" y="9.5" type="line"/>
      <point x="323.0" y="271.0" type="line"/>
      <point x="474.5" y="532.5" type="line"/>
      <point x="474.5" y="540.0" type="line"/>
      <point x="355.5" y="540.0" type="line"/>
      <point x="263.5" y="372.5" type="line"/>
      <point x="249.0" y="340.0" type="line"/>
      <point x="243.0" y="340.0" type="line"/>
      <point x="228.0" y="372.5" type="line"/>
      <point x="133.5" y="540.0" type="line"/>
      <point x="15.0" y="540.0" type="line"/>
      <point x="15.0" y="532.5" type="line"/>
      <point x="166.0" y="280.5" type="line"/>
      <point x="7.5" y="9.5" type="line"/>
    </contour>
  </outline>
</glyph>
<glyph name="logicalnot" format="1">
  <advance width="721.5"/>
  <unicode hex="00AC"/>
  <outline>
    <contour>
      <point x="44.5" y="338.0" type="line"/>
      <point x="556.5" y="338.0" type="line"/>
      <point x="556.5" y="108.5" type="line"/>
      <point x="666.5" y="108.5" type="line"/>
      <point x="666.5" y="431.0" type="line"/>
      <point x="44.5" y="431.0" type="line"/>
    </contour>
  </outline>
</glyph>
<glyph name="plusminus" format="1">
  <advance width="513.5"/>
  <unicode hex="00B1"/>
  <outline>
    <contour>
      <point x="52.0" y="385.0" type="line"/>
      <point x="461.0" y="385.0" type="line"/>
      <point x="461.0" y="469.0" type="line"/>
      <point x="52.0" y="469.0" type="line"/>
    </contour>
    <contour>
      <point x="52.5" y="73.5" type="line"/>
      <point x="461.5" y="73.5" type="line"/>
      <point x="461.5" y="157.5" type="line"/>
      <point x="52.5" y="157.5" type="line"/>
    </contour>
    <contour>
      <point x="214.5" y="225.0" type="line"/>
      <point x="298.5" y="225.0" type="line"/>
      <point x="298.5" y="634.0" type="line"/>
      <point x="214.5" y="634.0" type="line"/>
    </contour>
  </outline>
</glyph>
<glyph name="twosuperior" format="1">
  <advance width="366.5"/>
  <unicode hex="00B2"/>
  <outline>
    <contour>
      <point x="29.0" y="300.0" type="line"/>
      <point x="332.0" y="300.0" type="line"/>
      <point x="332.0" y="383.0" type="line"/>
      <point x="131.0" y="383.0" type="line"/>
      <point x="131.0" y="404.5" type="line" smooth="yes"/>
      <point x="131.0" y="449.0"/>
      <point x="163.5" y="489.5"/>
      <point x="232.5" y="540.5" type="curve" smooth="yes"/>
      <point x="301.5" y="589.5"/>
      <point x="334.0" y="638.5"/>
      <point x="334.0" y="710.5" type="curve" smooth="yes"/>
      <point x="334.0" y="805.0"/>
      <point x="280.0" y="853.5"/>
      <point x="174.5" y="853.5" type="curve" smooth="yes"/>
      <point x="137.0" y="853.5"/>
      <point x="90.5" y="846.5"/>
      <point x="40.0" y="832.5" type="curve"/>
      <point x="51.0" y="753.0" type="line"/>
      <point x="89.0" y="762.5"/>
      <point x="123.0" y="769.0"/>
      <point x="151.5" y="769.0" type="curve" smooth="yes"/>
      <point x="206.5" y="769.0"/>
      <point x="234.5" y="746.0"/>
      <point x="234.5" y="701.5" type="curve" smooth="yes"/>
      <point x="234.5" y="661.0"/>
      <point x="213.0" y="630.5"/>
      <point x="155.5" y="590.0" type="curve" smooth="yes"/>
      <point x="63.5" y="527.0"/>
      <point x="29.0" y="471.5"/>
      <point x="29.0" y="387.0" type="curve" smooth="yes"/>
    </contour>
  </outline>
</glyph>
<glyph name="ordmasculine" format="1">
  <advance width="408.5"/>
  <unicode hex="00BA"/>
  <outline>
    <contour>
      <point x="204.5" y="413.5" type="curve" smooth="yes"/>
      <point x="148.5" y="413.5"/>
      <point x="124.0" y="442.5"/>
      <point x="124.0" y="546.0" type="curve" smooth="yes"/>
      <point x="124.0" y="649.5"/>
      <point x="148.5" y="678.5"/>
      <point x="204.5" y="678.5" type="curve" smooth="yes"/>
      <point x="259.5" y="678.5"/>
      <point x="285.0" y="649.5"/>
      <point x="285.0" y="546.0" type="curve" smooth="yes"/>
      <point x="285.0" y="442.5"/>
      <point x="259.5" y="413.5"/>
    </contour>
    <contour>
      <point x="204.5" y="345.0" type="curve" smooth="yes"/>
      <point x="312.5" y="345.0"/>
      <point x="374.5" y="411.0"/>
      <point x="374.5" y="546.0" type="curve" smooth="yes"/>
      <point x="374.5" y="681.0"/>
      <point x="312.5" y="747.0"/>
      <point x="204.5" y="747.0" type="curve" smooth="yes"/>
      <point x="97.0" y="747.0"/>
      <point x="33.5" y="681.0"/>
      <point x="33.5" y="546.0" type="curve" smooth="yes"/>
      <point x="33.5" y="411.0"/>
      <point x="97.0" y="345.0"/>
    </contour>
  </outline>
</glyph>
<glyph name="idieresis" format="1">
  <advance width="226.0"/>
  <unicode hex="00EF"/>
  <outline>
    <contour>
      <point x="15.0" y="622.0" type="curve" smooth="yes"/>
      <point x="54.0" y="622.0"/>
      <point x="75.0" y="640.0"/>
      <point x="75.0" y="680.5" type="curve" smooth="yes"/>
      <point x="75.0" y="721.0"/>
      <point x="54.0" y="738.5"/>
      <point x="15.0" y="738.5" type="curve" smooth="yes"/>
      <point x="-25.5" y="738.5"/>
      <point x="-45.0" y="720.5"/>
      <point x="-45.0" y="680.5" type="curve" smooth="yes"/>
      <point x="-45.0" y="640.0"/>
      <point x="-25.5" y="622.0"/>
    </contour>
    <contour>
      <point x="218.0" y="622.0" type="curve" smooth="yes"/>
      <point x="256.5" y="622.0"/>
      <point x="277.5" y="640.0"/>
      <point x="277.5" y="680.5" type="curve" smooth="yes"/>
      <point x="277.5" y="721.0"/>
      <point x="256.5" y="738.5"/>
      <point x="218.0" y="738.5" type="curve" smooth="yes"/>
      <point x="177.5" y="738.5"/>
      <point x="158.0" y="720.5"/>
      <point x="158.0" y="680.5" type="curve" smooth="yes"/>
      <point x="158.0" y="640.0"/>
      <point x="177.5" y="622.0"/>
    </contour>
    <component base="dotlessi" xOffset="1.0"/>
  </outline>
</glyph>
<glyph name="Hbar" format="1">
  <advance width="676.0"/>
  <unicode hex="0126"/>
  <outline>
    <contour>
      <point x="-1.0" y="543.5" type="line"/>
      <point x="681.5" y="543.5" type="line"/>
      <point x="681.5" y="599.5" type="line"/>
      <point x="-1.0" y="599.5" type="line"/>
    </contour>
    <component base="H" xOffset="14.0"/>
  </outline>
</glyph>
<glyph name="ibreve" format="1">
  <advance width="226.0"/>
  <unicode hex="012D"/>
  <outline>
    <contour>
      <point x="116.5" y="616.0" type="curve" smooth="yes"/>
      <point x="216.5" y="616.0"/>
      <point x="273.5" y="669.0"/>
      <point x="278.0" y="765.0" type="curve"/>
      <point x="197.5" y="765.0" type="line"/>
      <point x="196.5" y="710.5"/>
      <point x="168.0" y="681.0"/>
      <point x="116.5" y="681.0" type="curve" smooth="yes"/>
      <point x="64.5" y="681.0"/>
      <point x="35.5" y="710.5"/>
      <point x="35.0" y="765.0" type="curve"/>
      <point x="-45.0" y="765.0" type="line"/>
      <point x="-41.5" y="669.0"/>
      <point x="16.0" y="616.0"/>
    </contour>
    <component base="dotlessi" xOffset="1.0"/>
  </outline>
</glyph>
<glyph name="Lslash" format="1">
  <advance width="453.0"/>
  <unicode hex="0141"/>
  <outline>
    <contour>
      <point x="9.5" y="223.0" type="line"/>
      <point x="299.5" y="429.5" type="line"/>
      <point x="299.5" y="521.5" type="line"/>
      <point x="9.5" y="315.0" type="line"/>
    </contour>
    <component base="L" xOffset="20.0"/>
  </outline>
</glyph>
<glyph name="Tbar" format="1">
  <advance width="508.5"/>
  <unicode hex="0166"/>
  <outline>
    <contour>
      <point x="87.0" y="345.0" type="line"/>
      <point x="416.5" y="345.0" type="line"/>
      <point x="416.5" y="411.5" type="line"/>
      <point x="87.0" y="411.5" type="line"/>
    </contour>
    <component base="T" xOffset="3.5"/>
  </outline>
</glyph>
<glyph name="Aringacute" format="1">
  <advance width="581.5"/>
  <unicode hex="01FA"/>
  <outline>
    <contour>
      <point x="3.0" y="0.0" type="line"/>
      <point x="111.0" y="0.0" type="line"/>
      <point x="168.0" y="202.5" type="line"/>
      <point x="413.0" y="202.5" type="line"/>
      <point x="470.5" y="0.0" type="line"/>
      <point x="578.5" y="0.0" type="line"/>
      <point x="578.5" y="6.5" type="line"/>
      <point x="392.5" y="658.5" type="line"/>
      <point x="411.0" y="678.5"/>
      <point x="420.5" y="707.0"/>
      <point x="420.5" y="739.0" type="curve" smooth="yes"/>
      <point x="420.5" y="790.5"/>
      <point x="396.0" y="833.0"/>
      <point x="352.5" y="851.5" type="curve"/>
      <point x="429.0" y="970.0" type="line"/>
      <point x="313.0" y="970.0" type="line"/>
      <point x="259.5" y="864.0" type="line"/>
      <point x="195.5" y="853.5"/>
      <point x="158.5" y="803.5"/>
      <point x="158.5" y="739.0" type="curve" smooth="yes"/>
      <point x="158.5" y="705.5"/>
      <point x="168.5" y="676.5"/>
      <point x="188.0" y="655.5" type="curve"/>
      <point x="3.0" y="6.5" type="line"/>
    </contour>
    <contour>
      <point x="289.0" y="673.0" type="curve" smooth="yes"/>
      <point x="251.0" y="673.0"/>
      <point x="227.5" y="700.5"/>
      <point x="227.5" y="739.0" type="curve" smooth="yes"/>
      <point x="227.5" y="777.5"/>
      <point x="250.0" y="805.0"/>
      <point x="289.0" y="805.0" type="curve" smooth="yes"/>
      <point x="328.0" y="805.0"/>
      <point x="351.5" y="777.5"/>
      <point x="351.5" y="739.0" type="curve" smooth="yes"/>
      <point x="351.5" y="701.0"/>
      <point x="327.5" y="673.0"/>
    </contour>
    <contour>
      <point x="192.0" y="300.5" type="line"/>
      <point x="260.0" y="538.0" type="line"/>
      <point x="275.0" y="609.5" type="line"/>
      <point x="306.5" y="609.5" type="line"/>
      <point x="321.5" y="538.0" type="line"/>
      <point x="388.5" y="300.5" type="line"/>
    </contour>
  </outline>
</glyph>
<glyph name="iinvertedbreve" format="1">
  <advance width="226.0"/>
  <unicode hex="020B"/>
  <outline>
    <contour>
      <point x="-38.0" y="621.5" type="curve"/>
      <point x="42.0" y="621.5" type="line"/>
      <point x="43.0" y="678.5"/>
      <point x="74.0" y="705.5"/>
      <point x="123.5" y="705.5" type="curve" smooth="yes"/>
      <point x="173.0" y="705.5"/>
      <point x="203.5" y="678.0"/>
      <point x="204.5" y="621.5" type="curve"/>
      <point x="285.0" y="621.5" type="line"/>
      <point x="281.0" y="717.5"/>
      <point x="224.0" y="770.5"/>
      <point x="123.5" y="770.5" type="curve" smooth="yes"/>
      <point x="23.0" y="770.5"/>
      <point x="-34.5" y="717.5"/>
    </contour>
    <component base="dotlessi" xOffset="1.0"/>
  </outline>
</glyph>
<glyph name="dotaccent" format="1">
  <advance width="238.5"/>
  <unicode hex="02D9"/>
  <outline>
    <contour>
      <point x="113.0" y="600.0" type="move" name="_top"/>
    </contour>
    <contour>
      <point x="113.0" y="616.0" type="curve" smooth="yes"/>
      <point x="156.5" y="616.0"/>
      <point x="179.5" y="635.0"/>
      <point x="179.5" y="680.5" type="curve" smooth="yes"/>
      <point x="179.5" y="725.5"/>
      <point x="156.5" y="745.0"/>
      <point x="113.0" y="745.0" type="curve" smooth="yes"/>
      <point x="68.5" y="745.0"/>
      <point x="47.5" y="726.0"/>
      <point x="47.5" y="680.5" type="curve" smooth="yes"/>
      <point x="47.5" y="635.5"/>
      <point x="68.5" y="616.0"/>
    </contour>
  </outline>
</glyph>
<glyph name="tilde" format="1">
  <advance width="412.0"/>
  <unicode hex="02DC"/>
  <outline>
    <contour>
      <point x="194.0" y="600.0" type="move" name="_top"/>
    </contour>
    <contour>
      <point x="54.5" y="627.0" type="line"/>
      <point x="74.0" y="653.0"/>
      <point x="96.0" y="667.0"/>
      <point x="118.5" y="667.0" type="curve" smooth="yes"/>
      <point x="166.0" y="667.0"/>
      <point x="205.0" y="617.0"/>
      <point x="256.0" y="617.0" type="curve" smooth="yes"/>
      <point x="297.5" y="617.0"/>
      <point x="342.5" y="645.5"/>
      <point x="370.0" y="702.5" type="curve"/>
      <point x="339.0" y="733.0" type="line"/>
      <point x="321.0" y="704.5"/>
      <point x="301.5" y="691.5"/>
      <point x="279.5" y="691.5" type="curve" smooth="yes"/>
      <point x="231.5" y="691.5"/>
      <point x="193.0" y="742.0"/>
      <point x="142.0" y="742.0" type="curve" smooth="yes"/>
      <point x="101.0" y="742.0"/>
      <point x="55.5" y="710.5"/>
      <point x="25.5" y="659.0" type="curve"/>
    </contour>
  </outline>
</glyph>
<glyph name="dagger" format="1">
  <advance width="448.5"/>
  <unicode hex="2020"/>
  <outline>
    <contour>
      <point x="198.0" y="65.0" type="line"/>
      <point x="251.0" y="65.0" type="line"/>
      <point x="278.0" y="265.0" type="line"/>
      <point x="278.0" y="345.0" type="line"/>
      <point x="251.0" y="510.5" type="line"/>
      <point x="419.5" y="488.5" type="line"/>
      <point x="423.5" y="488.5" type="line"/>
      <point x="423.5" y="585.5" type="line"/>
      <point x="419.5" y="585.5" type="line"/>
      <point x="251.0" y="563.5" type="line"/>
      <point x="278.0" y="729.0" type="line"/>
      <point x="278.0" y="808.0" type="line"/>
      <point x="170.0" y="808.0" type="line"/>
      <point x="170.0" y="729.0" type="line"/>
      <point x="198.0" y="563.5" type="line"/>
      <point x="29.5" y="585.5" type="line"/>
      <point x="25.5" y="585.5" type="line"/>
      <point x="25.5" y="488.5" type="line"/>
      <point x="29.5" y="488.5" type="line"/>
      <point x="198.0" y="510.5" type="line"/>
      <point x="170.0" y="345.0" type="line"/>
      <point x="170.0" y="265.0" type="line"/>
    </contour>
  </outline>
</glyph>
<glyph name="daggerdbl" format="1">
  <advance width="479.0"/>
  <unicode hex="2021"/>
  <outline>
    <contour>
      <point x="185.0" y="-198.0" type="line"/>
      <point x="293.0" y="-198.0" type="line"/>
      <point x="293.0" y="-119.0" type="line"/>
      <point x="266.0" y="46.5" type="line"/>
      <point x="429.5" y="24.5" type="line"/>
      <point x="438.5" y="24.5" type="line"/>
      <point x="438.5" y="121.5" type="line"/>
      <point x="429.5" y="121.5" type="line"/>
      <point x="266.0" y="99.5" type="line"/>
      <point x="293.0" y="265.0" type="line"/>
      <point x="293.0" y="345.0" type="line"/>
      <point x="266.0" y="510.5" type="line"/>
      <point x="429.5" y="488.5" type="line"/>
      <point x="438.5" y="488.5" type="line"/>
      <point x="438.5" y="585.5" type="line"/>
      <point x="429.5" y="585.5" type="line"/>
      <point x="266.0" y="563.5" type="line"/>
      <point x="293.0" y="729.0" type="line"/>
      <point x="293.0" y="808.0" type="line"/>
      <point x="185.0" y="808.0" type="line"/>
      <point x="185.0" y="729.0" type="line"/>
      <point x="213.0" y="563.5" type="line"/>
      <point x="49.5" y="585.5" type="line"/>
      <point x="40.5" y="585.5" type="line"/>
      <point x="40.5" y="488.5" type="line"/>
      <point x="49.5" y="488.5" type="line"/>
      <point x="213.0" y="510.5" type="line"/>
      <point x="185.0" y="345.0" type="line"/>
      <point x="185.0" y="265.0" type="line"/>
      <point x="213.0" y="99.5" type="line"/>
      <point x="49.5" y="121.5" type="line"/>
      <point x="40.5" y="121.5" type="line"/>
      <point x="40.5" y="24.5" type="line"/>
      <point x="49.5" y="24.5" type="line"/>
      <point x="213.0" y="46.5" type="line"/>
      <point x="185.0" y="-119.0" type="line"/>
    </contour>
  </outline>
</glyph>
<glyph name="perthousand" format="1">
  <advance width="1241.0"/>
  <unicode hex="2030"/>
  <outline>
    <contour>
      <point x="195.5" y="280.0" type="curve" smooth="yes"/>
      <point x="304.0" y="280.0"/>
      <point x="361.0" y="361.0"/>
      <point x="361.0" y="514.5" type="curve" smooth="yes"/>
      <point x="361.0" y="667.5"/>
      <point x="304.0" y="749.5"/>
      <point x="195.5" y="749.5" type="curve" smooth="yes"/>
      <point x="87.5" y="749.5"/>
      <point x="29.5" y="667.5"/>
      <point x="29.5" y="514.5" type="curve" smooth="yes"/>
      <point x="29.5" y="360.5"/>
      <point x="87.5" y="280.0"/>
    </contour>
    <contour>
      <point x="195.5" y="357.0" type="curve" smooth="yes"/>
      <point x="141.0" y="357.0"/>
      <point x="116.0" y="406.0"/>
      <point x="116.0" y="514.5" type="curve" smooth="yes"/>
      <point x="116.0" y="622.0"/>
      <point x="142.0" y="672.5"/>
      <point x="195.5" y="672.5" type="curve" smooth="yes"/>
      <point x="249.0" y="672.5"/>
      <point x="274.0" y="622.5"/>
      <point x="274.0" y="514.5" type="curve" smooth="yes"/>
      <point x="274.0" y="405.5"/>
      <point x="250.0" y="357.0"/>
    </contour>
    <contour>
      <point x="670.0" y="-12.0" type="curve" smooth="yes"/>
      <point x="778.5" y="-12.0"/>
      <point x="835.5" y="69.0"/>
      <point x="835.5" y="222.5" type="curve" smooth="yes"/>
      <point x="835.5" y="375.5"/>
      <point x="778.5" y="457.5"/>
      <point x="670.0" y="457.5" type="curve" smooth="yes"/>
      <point x="562.0" y="457.5"/>
      <point x="504.0" y="375.5"/>
      <point x="504.0" y="222.5" type="curve" smooth="yes"/>
      <point x="504.0" y="68.5"/>
      <point x="562.0" y="-12.0"/>
    </contour>
    <contour>
      <point x="670.0" y="65.0" type="curve" smooth="yes"/>
      <point x="615.5" y="65.0"/>
      <point x="590.5" y="114.0"/>
      <point x="590.5" y="222.5" type="curve" smooth="yes"/>
      <point x="590.5" y="330.0"/>
      <point x="616.5" y="380.5"/>
      <point x="670.0" y="380.5" type="curve" smooth="yes"/>
      <point x="723.5" y="380.5"/>
      <point x="748.5" y="330.5"/>
      <point x="748.5" y="222.5" type="curve" smooth="yes"/>
      <point x="748.5" y="113.5"/>
      <point x="724.5" y="65.0"/>
    </contour>
    <contour>
      <point x="1046.5" y="-12.0" type="curve" smooth="yes"/>
      <point x="1155.0" y="-12.0"/>
      <point x="1212.0" y="69.0"/>
      <point x="1212.0" y="222.5" type="curve" smooth="yes"/>
      <point x="1212.0" y="375.5"/>
      <point x="1155.0" y="457.5"/>
      <point x="1046.5" y="457.5" type="curve" smooth="yes"/>
      <point x="938.5" y="457.5"/>
      <point x="880.5" y="375.5"/>
      <point x="880.5" y="222.5" type="curve" smooth="yes"/>
      <point x="880.5" y="68.5"/>
      <point x="938.5" y="-12.0"/>
    </contour>
    <contour>
      <point x="1046.5" y="65.0" type="curve" smooth="yes"/>
      <point x="992.0" y="65.0"/>
      <point x="967.0" y="114.0"/>
      <point x="967.0" y="222.5" type="curve" smooth="yes"/>
      <point x="967.0" y="330.0"/>
      <point x="993.0" y="380.5"/>
      <point x="1046.5" y="380.5" type="curve" smooth="yes"/>
      <point x="1100.0" y="380.5"/>
      <point x="1125.0" y="330.5"/>
      <point x="1125.0" y="222.5" type="curve" smooth="yes"/>
      <point x="1125.0" y="113.5"/>
      <point x="1101.0" y="65.0"/>
    </contour>
    <contour>
      <point x="254.0" y="0.0" type="line"/>
      <point x="347.0" y="0.0" type="line"/>
      <point x="607.0" y="740.0" type="line"/>
      <point x="514.0" y="740.0" type="line"/>
    </contour>
  </outline>
</glyph>
<glyph name="ninesuperior" format="1">
  <advance width="405.5"/>
  <unicode hex="2079"/>
  <outline>
    <contour>
      <point x="146.5" y="292.5" type="curve" smooth="yes"/>
      <point x="294.0" y="292.5"/>
      <point x="373.5" y="402.0"/>
      <point x="373.5" y="602.5" type="curve" smooth="yes"/>
      <point x="373.5" y="766.0"/>
      <point x="311.5" y="854.5"/>
      <point x="196.5" y="854.5" type="curve" smooth="yes"/>
      <point x="91.0" y="854.5"/>
      <point x="24.0" y="780.5"/>
      <point x="24.0" y="665.5" type="curve" smooth="yes"/>
      <point x="24.0" y="568.5"/>
      <point x="84.0" y="506.5"/>
      <point x="179.0" y="506.5" type="curve" smooth="yes"/>
      <point x="213.5" y="506.5"/>
      <point x="250.0" y="519.5"/>
      <point x="280.0" y="543.5" type="curve"/>
      <point x="269.0" y="431.0"/>
      <point x="224.0" y="372.5"/>
      <point x="144.5" y="372.5" type="curve" smooth="yes"/>
      <point x="122.0" y="372.5"/>
      <point x="96.5" y="376.5"/>
      <point x="62.0" y="386.0" type="curve"/>
      <point x="52.5" y="306.5" type="line"/>
      <point x="90.5" y="297.0"/>
      <point x="121.0" y="292.5"/>
    </contour>
    <contour>
      <point x="197.0" y="573.0" type="curve" smooth="yes"/>
      <point x="143.5" y="573.0"/>
      <point x="115.5" y="605.5"/>
      <point x="115.5" y="667.5" type="curve" smooth="yes"/>
      <point x="115.5" y="731.5"/>
      <point x="145.0" y="770.5"/>
      <point x="196.5" y="770.5" type="curve" smooth="yes"/>
      <point x="253.5" y="770.5"/>
      <point x="281.5" y="721.5"/>
      <point x="283.5" y="615.5" type="curve"/>
      <point x="258.0" y="589.5"/>
      <point x="224.5" y="573.0"/>
    </contour>
  </outline>
</glyph>
<glyph name="colonmonetary" format="1">
  <advance width="503.0"/>
  <unicode hex="20A1"/>
  <outline>
    <contour>
      <point x="196.5" y="-51.5" type="line"/>
      <point x="265.0" y="-51.5" type="line"/>
      <point x="425.0" y="809.0" type="line"/>
      <point x="356.5" y="809.0" type="line"/>
    </contour>
    <component base="C" xOffset="1.0"/>
  </outline>
</glyph>
<glyph name="uni20B9" format="1">
  <advance width="553.0"/>
  <unicode hex="20B9"/>
  <outline>
    <contour>
      <point x="53.5" y="656.0" type="line"/>
      <point x="82.0" y="658.5"/>
      <point x="100.0" y="659.0"/>
      <point x="124.5" y="659.0" type="curve" smooth="yes"/>
      <point x="248.5" y="659.0"/>
      <point x="294.5" y="620.5"/>
      <point x="294.5" y="506.5" type="curve" smooth="yes"/>
      <point x="294.5" y="394.0"/>
      <point x="250.0" y="357.0"/>
      <point x="130.5" y="357.0" type="curve" smooth="yes"/>
      <point x="53.5" y="357.0" type="line"/>
      <point x="53.5" y="271.0" type="line"/>
      <point x="252.0" y="271.0" type="line"/>
      <point x="275.0" y="284.0" type="line"/>
      <point x="275.0" y="295.0" type="line"/>
      <point x="367.0" y="325.0"/>
      <point x="412.5" y="402.0"/>
      <point x="412.5" y="510.0" type="curve" smooth="yes"/>
      <point x="412.5" y="608.0"/>
      <point x="378.5" y="677.5"/>
      <point x="307.0" y="715.5" type="curve"/>
      <point x="53.0" y="715.5" type="line"/>
    </contour>
    <contour>
      <point x="299.0" y="0.0" type="line"/>
      <point x="427.0" y="0.0" type="line"/>
      <point x="257.0" y="326.0" type="line"/>
      <point x="154.0" y="294.0" type="line"/>
    </contour>
    <contour>
      <point x="53.0" y="671.5" type="line"/>
      <point x="512.0" y="671.5" type="line"/>
      <point x="532.0" y="740.0" type="line"/>
      <point x="53.0" y="740.0" type="line"/>
    </contour>
    <contour>
      <point x="53.0" y="472.5" type="line"/>
      <point x="480.0" y="472.5" type="line"/>
      <point x="500.0" y="541.0" type="line"/>
      <point x="53.0" y="541.0" type="line"/>
    </contour>
  </outline>
</glyph>
<glyph name="servicemark" format="1">
  <advance width="814.0"/>
  <unicode hex="2120"/>
  <outline>
    <contour>
      <point x="167.5" y="313.0" type="curve" smooth="yes"/>
      <point x="249.0" y="313.0"/>
      <point x="299.0" y="360.5"/>
      <point x="299.0" y="437.5" type="curve" smooth="yes"/>
      <point x="299.0" y="498.5"/>
      <point x="272.0" y="533.5"/>
      <point x="204.0" y="561.0" type="curve" smooth="yes"/>
      <point x="151.5" y="582.0"/>
      <point x="130.0" y="596.0"/>
      <point x="130.0" y="625.5" type="curve" smooth="yes"/>
      <point x="130.0" y="659.5"/>
      <point x="153.0" y="680.5"/>
      <point x="191.0" y="680.5" type="curve" smooth="yes"/>
      <point x="209.5" y="680.5"/>
      <point x="243.5" y="675.0"/>
      <point x="280.5" y="666.0" type="curve"/>
      <point x="284.5" y="731.5" type="line"/>
      <point x="248.0" y="740.5"/>
      <point x="216.5" y="745.5"/>
      <point x="186.0" y="745.5" type="curve" smooth="yes"/>
      <point x="104.0" y="745.5"/>
      <point x="53.0" y="700.0"/>
      <point x="53.0" y="625.5" type="curve" smooth="yes"/>
      <point x="53.0" y="560.5"/>
      <point x="81.5" y="524.0"/>
      <point x="150.5" y="500.5" type="curve" smooth="yes"/>
      <point x="204.0" y="481.5"/>
      <point x="222.0" y="464.0"/>
      <point x="222.0" y="435.5" type="curve" smooth="yes"/>
      <point x="222.0" y="399.5"/>
      <point x="199.0" y="380.0"/>
      <point x="157.0" y="380.0" type="curve" smooth="yes"/>
      <point x="128.0" y="380.0"/>
      <point x="79.5" y="390.5"/>
      <point x="52.0" y="403.5" type="curve"/>
      <point x="48.0" y="335.5" type="line"/>
      <point x="86.5" y="321.0"/>
      <point x="132.0" y="313.0"/>
    </contour>
    <contour>
      <point x="360.0" y="320.0" type="line"/>
      <point x="433.0" y="320.0" type="line"/>
      <point x="433.0" y="612.5" type="line"/>
      <point x="525.5" y="339.5" type="line"/>
      <point x="592.0" y="339.5" type="line"/>
      <point x="684.5" y="613.0" type="line"/>
      <point x="684.5" y="320.0" type="line"/>
      <point x="757.5" y="320.0" type="line"/>
      <point x="757.5" y="740.0" type="line"/>
      <point x="657.0" y="740.0" type="line"/>
      <point x="558.5" y="456.5" type="line"/>
      <point x="460.5" y="740.0" type="line"/>
      <point x="360.0" y="740.0" type="line"/>
    </contour>
  </outline>
</glyph>
<glyph name="Omega" format="1">
  <advance width="724.0"/>
  <unicode hex="2126"/>
  <outline>
    <contour>
      <point x="38.0" y="0.0" type="line"/>
      <point x="321.0" y="0.0" type="line"/>
      <point x="321.0" y="82.0" type="line"/>
      <point x="274.5" y="118.5"/>
      <point x="163.5" y="193.0"/>
      <point x="163.5" y="418.0" type="curve" smooth="yes"/>
      <point x="163.5" y="564.0"/>
      <point x="242.0" y="661.0"/>
      <point x="362.0" y="661.0" type="curve" smooth="yes"/>
      <point x="483.5" y="661.0"/>
      <point x="563.5" y="564.0"/>
      <point x="563.5" y="418.0" type="curve" smooth="yes"/>
      <point x="563.5" y="193.0"/>
      <point x="450.5" y="118.5"/>
      <point x="403.0" y="82.0" type="curve"/>
      <point x="403.0" y="0.0" type="line"/>
      <point x="686.0" y="0.0" type="line"/>
      <point x="686.0" y="98.0" type="line"/>
      <point x="491.5" y="89.0" type="line"/>
      <point x="572.5" y="138.0"/>
      <point x="675.0" y="234.5"/>
      <point x="675.0" y="418.0" type="curve" smooth="yes"/>
      <point x="675.0" y="618.0"/>
      <point x="551.0" y="750.0"/>
      <point x="362.0" y="750.0" type="curve" smooth="yes"/>
      <point x="173.0" y="750.0"/>
      <point x="49.0" y="618.0"/>
      <point x="49.0" y="418.0" type="curve" smooth="yes"/>
      <point x="49.0" y="235.0"/>
      <point x="150.0" y="138.5"/>
      <point x="231.5" y="90.0" type="curve"/>
      <point x="38.0" y="98.0" type="line"/>
    </contour>
  </outline>
</glyph>
<glyph name="estimated" format="1">
  <advance width="646.5"/>
  <unicode hex="212E"/>
  <outline>
    <contour>
      <point x="329.0" y="1.0" type="curve" smooth="yes"/>
      <point x="433.0" y="1.0"/>
      <point x="512.0" y="48.0"/>
      <point x="587.0" y="154.0" type="curve"/>
      <point x="547.0" y="178.0" type="line"/>
      <point x="495.0" y="87.0"/>
      <point x="423.0" y="42.0"/>
      <point x="329.0" y="42.0" type="curve" smooth="yes"/>
      <point x="265.0" y="42.0"/>
      <point x="213.0" y="64.0"/>
      <point x="170.0" y="108.0" type="curve"/>
      <point x="170.0" y="313.0" type="line"/>
      <point x="617.0" y="313.0" type="line"/>
      <point x="608.0" y="504.0"/>
      <point x="496.0" y="626.0"/>
      <point x="329.0" y="626.0" type="curve" smooth="yes"/>
      <point x="160.0" y="626.0"/>
      <point x="42.0" y="497.0"/>
      <point x="42.0" y="313.0" type="curve" smooth="yes"/>
      <point x="42.0" y="135.0"/>
      <point x="165.0" y="1.0"/>
    </contour>
    <contour>
      <point x="170.0" y="354.0" type="line"/>
      <point x="170.0" y="518.0" type="line"/>
      <point x="213.0" y="563.0"/>
      <point x="265.0" y="586.0"/>
      <point x="328.0" y="586.0" type="curve" smooth="yes"/>
      <point x="389.0" y="586.0"/>
      <point x="442.0" y="563.0"/>
      <point x="489.0" y="518.0" type="curve"/>
      <point x="489.0" y="354.0" type="line"/>
    </contour>
  </outline>
</glyph>
<glyph name="summation" format="1">
  <advance width="520.0"/>
  <unicode hex="2211"/>
  <outline>
    <contour>
      <point x="28.5" y="-101.0" type="line"/>
      <point x="484.5" y="-101.0" type="line"/>
      <point x="484.5" y="-3.0" type="line"/>
      <point x="163.5" y="-3.0" type="line"/>
      <point x="358.0" y="319.5" type="line"/>
      <point x="163.5" y="642.0" type="line"/>
      <point x="484.5" y="642.0" type="line"/>
      <point x="484.5" y="740.0" type="line"/>
      <point x="28.5" y="740.0" type="line"/>
      <point x="28.5" y="667.5" type="line"/>
      <point x="242.0" y="319.0" type="line"/>
      <point x="28.5" y="-29.0" type="line"/>
    </contour>
  </outline>
</glyph>
<glyph name="minus" format="1">
  <advance width="525.0"/>
  <unicode hex="2212"/>
  <outline>
    <contour>
      <point x="53.0" y="328.0" type="line"/>
      <point x="472.0" y="328.0" type="line"/>
      <point x="472.0" y="412.0" type="line"/>
      <point x="53.0" y="412.0" type="line"/>
    </contour>
  </outline>
</glyph>
<glyph name="D.sc" format="1">
  <advance width="556.0"/>
  <outline>
    <contour>
      <point x="259.0" y="760.0" type="move" name="topUC"/>
    </contour>
    <contour>
      <point x="264.0" y="0.0" type="move" name="bottom"/>
    </contour>
    <contour>
      <point x="199.5" y="-10.5" type="curve" smooth="yes"/>
      <point x="427.0" y="-10.5"/>
      <point x="518.5" y="74.0"/>
      <point x="518.5" y="288.0" type="curve" smooth="yes"/>
      <point x="518.5" y="499.0"/>
      <point x="431.5" y="584.5"/>
      <point x="217.5" y="584.5" type="curve" smooth="yes"/>
      <point x="176.5" y="584.5"/>
      <point x="130.0" y="581.0"/>
      <point x="62.0" y="575.5" type="curve"/>
      <point x="62.0" y="-2.5" type="line"/>
      <point x="116.5" y="-8.5"/>
      <point x="159.5" y="-10.5"/>
    </contour>
    <contour>
      <point x="234.5" y="78.5" type="curve" smooth="yes"/>
      <point x="216.0" y="78.5"/>
      <point x="197.5" y="79.0"/>
      <point x="169.0" y="82.5" type="curve"/>
      <point x="169.0" y="492.0" type="line"/>
      <point x="189.0" y="495.0"/>
      <point x="209.5" y="497.0"/>
      <point x="234.0" y="497.0" type="curve" smooth="yes"/>
      <point x="361.5" y="497.0"/>
      <point x="407.0" y="445.5"/>
      <point x="407.0" y="288.5" type="curve" smooth="yes"/>
      <point x="407.0" y="130.5"/>
      <point x="358.0" y="78.5"/>
    </contour>
  </outline>
</glyph>
<glyph name="Edieresis.sc" format="1">
  <advance width="477.5"/>
  <outline>
    <contour>
      <point x="153.5" y="627.0" type="curve" smooth="yes"/>
      <point x="194.0" y="627.0"/>
      <point x="215.5" y="644.5"/>
      <point x="215.5" y="686.0" type="curve" smooth="yes"/>
      <point x="215.5" y="727.0"/>
      <point x="194.0" y="745.0"/>
      <point x="153.5" y="745.0" type="curve" smooth="yes"/>
      <point x="111.0" y="745.0"/>
      <point x="91.5" y="727.5"/>
      <point x="91.5" y="686.0" type="curve" smooth="yes"/>
      <point x="91.5" y="645.0"/>
      <point x="111.0" y="627.0"/>
    </contour>
    <contour>
      <point x="350.0" y="627.0" type="curve" smooth="yes"/>
      <point x="390.5" y="627.0"/>
      <point x="412.0" y="644.5"/>
      <point x="412.0" y="686.0" type="curve" smooth="yes"/>
      <point x="412.0" y="727.0"/>
      <point x="390.5" y="745.0"/>
      <point x="350.0" y="745.0" type="curve" smooth="yes"/>
      <point x="307.5" y="745.0"/>
      <point x="288.5" y="727.5"/>
      <point x="288.5" y="686.0" type="curve" smooth="yes"/>
      <point x="288.5" y="645.0"/>
      <point x="307.5" y="627.0"/>
    </contour>
    <contour>
      <point x="62.5" y="0.0" type="line"/>
      <point x="444.0" y="0.0" type="line"/>
      <point x="444.0" y="89.0" type="line"/>
      <point x="171.0" y="89.0" type="line"/>
      <point x="171.0" y="247.5" type="line"/>
      <point x="408.5" y="247.5" type="line"/>
      <point x="408.5" y="333.5" type="line"/>
      <point x="171.0" y="333.5" type="line"/>
      <point x="171.0" y="488.5" type="line"/>
      <point x="436.5" y="488.5" type="line"/>
      <point x="436.5" y="577.0" type="line"/>
      <point x="62.5" y="577.0" type="line"/>
    </contour>
  </outline>
</glyph>
<glyph name="Edotbelow.sc" format="1">
  <advance width="477.5"/>
  <outline>
    <contour>
      <point x="260.5" y="-155.0" type="curve" smooth="yes"/>
      <point x="296.0" y="-155.0"/>
      <point x="313.5" y="-141.0"/>
      <point x="313.5" y="-106.5" type="curve" smooth="yes"/>
      <point x="313.5" y="-72.0"/>
      <point x="296.0" y="-58.0"/>
      <point x="260.5" y="-58.0" type="curve" smooth="yes"/>
      <point x="225.0" y="-58.0"/>
      <point x="208.5" y="-71.5"/>
      <point x="208.5" y="-106.5" type="curve" smooth="yes"/>
      <point x="208.5" y="-141.5"/>
      <point x="225.0" y="-155.0"/>
    </contour>
    <contour>
      <point x="62.5" y="0.0" type="line"/>
      <point x="444.0" y="0.0" type="line"/>
      <point x="444.0" y="89.0" type="line"/>
      <point x="171.0" y="89.0" type="line"/>
      <point x="171.0" y="247.5" type="line"/>
      <point x="408.5" y="247.5" type="line"/>
      <point x="408.5" y="333.5" type="line"/>
      <point x="171.0" y="333.5" type="line"/>
      <point x="171.0" y="488.5" type="line"/>
      <point x="436.5" y="488.5" type="line"/>
      <point x="436.5" y="577.0" type="line"/>
      <point x="62.5" y="577.0" type="line"/>
    </contour>
  </outline>
</glyph>
<glyph name="Emacron.sc" format="1">
  <advance width="477.5"/>
  <outline>
    <contour>
      <point x="62.5" y="0.0" type="line"/>
      <point x="444.0" y="0.0" type="line"/>
      <point x="444.0" y="89.0" type="line"/>
      <point x="171.0" y="89.0" type="line"/>
      <point x="171.0" y="247.5" type="line"/>
      <point x="408.5" y="247.5" type="line"/>
      <point x="408.5" y="333.5" type="line"/>
      <point x="171.0" y="333.5" type="line"/>
      <point x="171.0" y="488.5" type="line"/>
      <point x="436.5" y="488.5" type="line"/>
      <point x="436.5" y="577.0" type="line"/>
      <point x="62.5" y="577.0" type="line"/>
    </contour>
    <contour>
      <point x="121.5" y="653.5" type="line"/>
      <point x="374.0" y="653.5" type="line"/>
      <point x="374.0" y="726.5" type="line"/>
      <point x="121.5" y="726.5" type="line"/>
    </contour>
  </outline>
</glyph>
<glyph name="Gbreve.sc" format="1">
  <advance width="517.0"/>
  <outline>
    <contour>
      <point x="307.0" y="-7.5" type="curve" smooth="yes"/>
      <point x="353.5" y="-7.5"/>
      <point x="400.5" y="-3.5"/>
      <point x="471.0" y="6.5" type="curve"/>
      <point x="471.0" y="293.0" type="line"/>
      <point x="372.5" y="293.0" type="line"/>
      <point x="372.5" y="86.0" type="line"/>
      <point x="356.0" y="84.0"/>
      <point x="327.5" y="83.0"/>
      <point x="319.0" y="83.0" type="curve" smooth="yes"/>
      <point x="194.0" y="83.0"/>
      <point x="148.5" y="135.0"/>
      <point x="148.5" y="288.0" type="curve" smooth="yes"/>
      <point x="148.5" y="441.5"/>
      <point x="197.5" y="494.5"/>
      <point x="339.5" y="494.5" type="curve" smooth="yes"/>
      <point x="373.5" y="494.5"/>
      <point x="414.5" y="490.0"/>
      <point x="466.0" y="481.0" type="curve"/>
      <point x="466.0" y="568.5" type="line"/>
      <point x="418.5" y="579.0"/>
      <point x="367.0" y="584.5"/>
      <point x="329.0" y="584.5" type="curve" smooth="yes"/>
      <point x="128.5" y="584.5"/>
      <point x="36.5" y="489.5"/>
      <point x="36.5" y="288.5" type="curve" smooth="yes"/>
      <point x="36.5" y="88.0"/>
      <point x="122.0" y="-6.5"/>
    </contour>
    <contour>
      <point x="297.5" y="624.0" type="curve" smooth="yes"/>
      <point x="392.0" y="624.0"/>
      <point x="444.5" y="674.0"/>
      <point x="444.5" y="754.5" type="curve"/>
      <point x="368.5" y="754.5" type="line"/>
      <point x="368.5" y="699.5"/>
      <point x="347.0" y="677.0"/>
      <point x="297.5" y="677.0" type="curve" smooth="yes"/>
      <point x="247.0" y="677.0"/>
      <point x="226.0" y="699.5"/>
      <point x="226.0" y="754.5" type="curve"/>
      <point x="150.5" y="754.5" type="line"/>
      <point x="150.5" y="673.5"/>
      <point x="202.5" y="624.0"/>
    </contour>
  </outline>
</glyph>
<glyph name="Gdotaccent.sc" format="1">
  <advance width="517.0"/>
  <outline>
    <contour>
      <point x="307.0" y="-7.5" type="curve" smooth="yes"/>
      <point x="353.5" y="-7.5"/>
      <point x="400.5" y="-3.5"/>
      <point x="471.0" y="6.5" type="curve"/>
      <point x="471.0" y="293.0" type="line"/>
      <point x="372.5" y="293.0" type="line"/>
      <point x="372.5" y="86.0" type="line"/>
      <point x="356.0" y="84.0"/>
      <point x="327.5" y="83.0"/>
      <point x="319.0" y="83.0" type="curve" smooth="yes"/>
      <point x="194.0" y="83.0"/>
      <point x="148.5" y="135.0"/>
      <point x="148.5" y="288.0" type="curve" smooth="yes"/>
      <point x="148.5" y="441.5"/>
      <point x="197.5" y="494.5"/>
      <point x="339.5" y="494.5" type="curve" smooth="yes"/>
      <point x="373.5" y="494.5"/>
      <point x="414.5" y="490.0"/>
      <point x="466.0" y="481.0" type="curve"/>
      <point x="466.0" y="568.5" type="line"/>
      <point x="418.5" y="579.0"/>
      <point x="367.0" y="584.5"/>
      <point x="329.0" y="584.5" type="curve" smooth="yes"/>
      <point x="128.5" y="584.5"/>
      <point x="36.5" y="489.5"/>
      <point x="36.5" y="288.5" type="curve" smooth="yes"/>
      <point x="36.5" y="88.0"/>
      <point x="122.0" y="-6.5"/>
    </contour>
    <contour>
      <point x="297.0" y="623.0" type="curve" smooth="yes"/>
      <point x="338.0" y="623.0"/>
      <point x="359.0" y="640.5"/>
      <point x="359.0" y="682.5" type="curve" smooth="yes"/>
      <point x="359.0" y="723.5"/>
      <point x="338.0" y="740.5"/>
      <point x="297.0" y="740.5" type="curve" smooth="yes"/>
      <point x="255.0" y="740.5"/>
      <point x="235.5" y="723.5"/>
      <point x="235.5" y="682.5" type="curve" smooth="yes"/>
      <point x="235.5" y="640.5"/>
      <point x="255.0" y="623.0"/>
    </contour>
  </outline>
</glyph>
<glyph name="Hcircumflex.sc" format="1">
  <advance width="590.0"/>
  <outline>
    <contour>
      <point x="62.5" y="0.0" type="line"/>
      <point x="171.0" y="0.0" type="line"/>
      <point x="171.0" y="249.0" type="line"/>
      <point x="418.5" y="249.0" type="line"/>
      <point x="418.5" y="0.0" type="line"/>
      <point x="527.5" y="0.0" type="line"/>
      <point x="527.5" y="577.0" type="line"/>
      <point x="418.5" y="577.0" type="line"/>
      <point x="418.5" y="340.5" type="line"/>
      <point x="171.0" y="340.5" type="line"/>
      <point x="171.0" y="577.0" type="line"/>
      <point x="62.5" y="577.0" type="line"/>
    </contour>
    <contour>
      <point x="157.5" y="622.5" type="line"/>
      <point x="290.5" y="678.5" type="line"/>
      <point x="422.5" y="622.5" type="line"/>
      <point x="422.5" y="697.0" type="line"/>
      <point x="290.5" y="753.0" type="line"/>
      <point x="157.5" y="697.0" type="line"/>
    </contour>
  </outline>
</glyph>
<glyph name="Ibreve.sc" format="1">
  <advance width="233.5"/>
  <outline>
    <contour>
      <point x="62.5" y="0.0" type="line"/>
      <point x="171.0" y="0.0" type="line"/>
      <point x="171.0" y="577.0" type="line"/>
      <point x="62.5" y="577.0" type="line"/>
    </contour>
    <contour>
      <point x="119.0" y="624.0" type="curve" smooth="yes"/>
      <point x="213.0" y="624.0"/>
      <point x="265.5" y="674.0"/>
      <point x="265.5" y="754.5" type="curve"/>
      <point x="189.5" y="754.5" type="line"/>
      <point x="189.5" y="699.5"/>
      <point x="168.0" y="677.0"/>
      <point x="119.0" y="677.0" type="curve" smooth="yes"/>
      <point x="68.5" y="677.0"/>
      <point x="47.5" y="699.5"/>
      <point x="47.5" y="754.5" type="curve"/>
      <point x="-28.0" y="754.5" type="line"/>
      <point x="-28.0" y="673.5"/>
      <point x="23.0" y="624.0"/>
    </contour>
  </outline>
</glyph>
<glyph name="Igrave.sc" format="1">
  <advance width="234.0"/>
  <outline>
    <contour>
      <point x="62.5" y="0.0" type="line"/>
      <point x="171.5" y="0.0" type="line"/>
      <point x="171.5" y="577.0" type="line"/>
      <point x="62.5" y="577.0" type="line"/>
    </contour>
    <contour>
      <point x="155.0" y="624.0" type="line"/>
      <point x="93.0" y="750.0" type="line"/>
      <point x="-16.5" y="750.0" type="line"/>
      <point x="76.5" y="615.5" type="line"/>
    </contour>
  </outline>
</glyph>
<glyph name="Iogonek.sc" format="1">
  <advance width="234.0"/>
  <outline>
    <contour>
      <point x="63.0" y="0.0" type="line"/>
      <point x="81.5" y="0.0" type="line"/>
      <point x="32.5" y="-32.0"/>
      <point x="11.0" y="-60.0"/>
      <point x="11.0" y="-97.0" type="curve" smooth="yes"/>
      <point x="11.0" y="-145.5"/>
      <point x="44.5" y="-172.0"/>
      <point x="108.5" y="-172.0" type="curve" smooth="yes"/>
      <point x="131.0" y="-172.0"/>
      <point x="149.5" y="-168.0"/>
      <point x="171.5" y="-162.0" type="curve"/>
      <point x="171.5" y="-99.0" type="line"/>
      <point x="157.0" y="-103.5"/>
      <point x="136.5" y="-108.0"/>
      <point x="118.5" y="-108.0" type="curve" smooth="yes"/>
      <point x="95.5" y="-108.0"/>
      <point x="83.0" y="-101.5"/>
      <point x="83.0" y="-86.0" type="curve" smooth="yes"/>
      <point x="83.0" y="-63.5"/>
      <point x="108.5" y="-30.5"/>
      <point x="171.5" y="-7.5" type="curve"/>
      <point x="171.5" y="577.0" type="line"/>
      <point x="63.0" y="577.0" type="line"/>
    </contour>
  </outline>
</glyph>
<glyph name="K.sc" format="1">
  <advance width="536.5"/>
  <outline>
    <contour>
      <point x="276.5" y="0.0" type="move" name="bottom"/>
    </contour>
    <contour>
      <point x="62.5" y="0.0" type="line"/>
      <point x="171.0" y="0.0" type="line"/>
      <point x="171.0" y="248.5" type="line"/>
      <point x="241.5" y="248.5" type="line"/>
      <point x="413.5" y="0.0" type="line"/>
      <point x="535.0" y="0.0" type="line"/>
      <point x="351.5" y="271.5" type="line"/>
      <point x="306.0" y="292.0" type="line"/>
      <point x="306.0" y="296.5" type="line"/>
      <point x="350.5" y="318.0" type="line"/>
      <point x="517.5" y="577.0" type="line"/>
      <point x="396.0" y="577.0" type="line"/>
      <point x="242.0" y="340.0" type="line"/>
      <point x="171.0" y="340.0" type="line"/>
      <point x="171.0" y="577.0" type="line"/>
      <point x="62.5" y="577.0" type="line"/>
    </contour>
  </outline>
</glyph>
<glyph name="N.sc" format="1">
  <advance width="603.5"/>
  <outline>
    <contour>
      <point x="337.5" y="760.0" type="move" name="topUC"/>
    </contour>
    <contour>
      <point x="352.5" y="0.0" type="move" name="bottom"/>
    </contour>
    <contour>
      <point x="62.5" y="0.0" type="line"/>
      <point x="160.0" y="0.0" type="line"/>
      <point x="160.0" y="402.5" type="line"/>
      <point x="167.0" y="402.0" type="line"/>
      <point x="209.0" y="337.5" type="line"/>
      <point x="449.0" y="0.0" type="line"/>
      <point x="541.0" y="0.0" type="line"/>
      <point x="541.0" y="577.0" type="line"/>
      <point x="443.5" y="577.0" type="line"/>
      <point x="443.5" y="176.5" type="line"/>
      <point x="436.5" y="176.0" type="line"/>
      <point x="395.0" y="240.5" type="line"/>
      <point x="155.0" y="577.0" type="line"/>
      <point x="62.5" y="577.0" type="line"/>
    </contour>
  </outline>
</glyph>
<glyph name="Obreve.sc" format="1">
  <advance width="579.0"/>
  <outline>
    <contour>
      <point x="289.5" y="-8.0" type="curve" smooth="yes"/>
      <point x="459.5" y="-8.0"/>
      <point x="542.5" y="88.5"/>
      <point x="542.5" y="288.0" type="curve" smooth="yes"/>
      <point x="542.5" y="488.5"/>
      <point x="459.5" y="585.0"/>
      <point x="289.5" y="585.0" type="curve" smooth="yes"/>
      <point x="120.0" y="585.0"/>
      <point x="36.5" y="487.0"/>
      <point x="36.5" y="288.0" type="curve" smooth="yes"/>
      <point x="36.5" y="89.5"/>
      <point x="120.0" y="-8.0"/>
    </contour>
    <contour>
      <point x="289.5" y="82.5" type="curve" smooth="yes"/>
      <point x="187.5" y="82.5"/>
      <point x="147.5" y="139.0"/>
      <point x="147.5" y="288.0" type="curve" smooth="yes"/>
      <point x="147.5" y="438.5"/>
      <point x="188.0" y="494.5"/>
      <point x="289.5" y="494.5" type="curve" smooth="yes"/>
      <point x="391.0" y="494.5"/>
      <point x="431.5" y="438.0"/>
      <point x="431.5" y="288.0" type="curve" smooth="yes"/>
      <point x="431.5" y="138.5"/>
      <point x="391.0" y="82.5"/>
    </contour>
    <contour>
      <point x="290.0" y="624.0" type="curve" smooth="yes"/>
      <point x="385.0" y="624.0"/>
      <point x="437.0" y="674.0"/>
      <point x="437.0" y="754.5" type="curve"/>
      <point x="361.5" y="754.5" type="line"/>
      <point x="361.5" y="699.5"/>
      <point x="339.5" y="677.0"/>
      <point x="290.0" y="677.0" type="curve" smooth="yes"/>
      <point x="240.0" y="677.0"/>
      <point x="218.5" y="699.5"/>
      <point x="218.5" y="754.5" type="curve"/>
      <point x="143.5" y="754.5" type="line"/>
      <point x="143.5" y="673.5"/>
      <point x="195.0" y="624.0"/>
    </contour>
  </outline>
</glyph>
<glyph name="Odotbelow.sc" format="1">
  <advance width="579.0"/>
  <outline>
    <contour>
      <point x="289.5" y="-8.0" type="curve" smooth="yes"/>
      <point x="459.5" y="-8.0"/>
      <point x="542.5" y="88.5"/>
      <point x="542.5" y="288.0" type="curve" smooth="yes"/>
      <point x="542.5" y="488.5"/>
      <point x="459.5" y="585.0"/>
      <point x="289.5" y="585.0" type="curve" smooth="yes"/>
      <point x="120.0" y="585.0"/>
      <point x="36.5" y="487.0"/>
      <point x="36.5" y="288.0" type="curve" smooth="yes"/>
      <point x="36.5" y="89.5"/>
      <point x="120.0" y="-8.0"/>
    </contour>
    <contour>
      <point x="289.5" y="82.5" type="curve" smooth="yes"/>
      <point x="187.5" y="82.5"/>
      <point x="147.5" y="139.0"/>
      <point x="147.5" y="288.0" type="curve" smooth="yes"/>
      <point x="147.5" y="438.5"/>
      <point x="188.0" y="494.5"/>
      <point x="289.5" y="494.5" type="curve" smooth="yes"/>
      <point x="391.0" y="494.5"/>
      <point x="431.5" y="438.0"/>
      <point x="431.5" y="288.0" type="curve" smooth="yes"/>
      <point x="431.5" y="138.5"/>
      <point x="391.0" y="82.5"/>
    </contour>
    <contour>
      <point x="292.0" y="-155.0" type="curve" smooth="yes"/>
      <point x="327.5" y="-155.0"/>
      <point x="344.5" y="-141.5"/>
      <point x="344.5" y="-106.5" type="curve" smooth="yes"/>
      <point x="344.5" y="-72.0"/>
      <point x="327.5" y="-58.0"/>
      <point x="292.0" y="-58.0" type="curve" smooth="yes"/>
      <point x="256.0" y="-58.0"/>
      <point x="240.0" y="-72.0"/>
      <point x="240.0" y="-106.5" type="curve" smooth="yes"/>
      <point x="240.0" y="-141.0"/>
      <point x="256.0" y="-155.0"/>
    </contour>
  </outline>
</glyph>
<glyph name="Oslash.sc" format="1">
  <advance width="587.0"/>
  <outline>
    <contour>
      <point x="310.0" y="760.0" type="move" name="topUC"/>
    </contour>
    <contour>
      <point x="15.5" y="0.0" type="line"/>
      <point x="99.0" y="0.0" type="line"/>
      <point x="132.5" y="43.0" type="line"/>
      <point x="172.5" y="8.5"/>
      <point x="225.5" y="-8.0"/>
      <point x="293.5" y="-8.0" type="curve" smooth="yes"/>
      <point x="463.5" y="-8.0"/>
      <point x="547.0" y="88.5"/>
      <point x="547.0" y="288.0" type="curve" smooth="yes"/>
      <point x="547.0" y="374.0"/>
      <point x="531.5" y="441.0"/>
      <point x="500.5" y="489.5" type="curve"/>
      <point x="573.0" y="577.0" type="line"/>
      <point x="489.5" y="577.0" type="line"/>
      <point x="455.0" y="534.0" type="line"/>
      <point x="415.5" y="567.5"/>
      <point x="361.5" y="585.0"/>
      <point x="293.5" y="585.0" type="curve" smooth="yes"/>
      <point x="124.0" y="585.0"/>
      <point x="40.5" y="487.0"/>
      <point x="40.5" y="288.0" type="curve" smooth="yes"/>
      <point x="40.5" y="202.0"/>
      <point x="55.5" y="135.0"/>
      <point x="87.0" y="86.5" type="curve"/>
    </contour>
    <contour>
      <point x="293.5" y="82.5" type="curve" smooth="yes"/>
      <point x="250.5" y="82.5"/>
      <point x="219.5" y="93.5"/>
      <point x="197.5" y="118.0" type="curve"/>
      <point x="420.5" y="396.0" type="line"/>
      <point x="430.5" y="368.5"/>
      <point x="435.5" y="332.5"/>
      <point x="435.5" y="288.0" type="curve" smooth="yes"/>
      <point x="435.5" y="138.5"/>
      <point x="395.5" y="82.5"/>
    </contour>
    <contour>
      <point x="151.5" y="288.0" type="curve" smooth="yes"/>
      <point x="151.5" y="438.5"/>
      <point x="192.0" y="494.5"/>
      <point x="293.5" y="494.5" type="curve" smooth="yes"/>
      <point x="335.5" y="494.5"/>
      <point x="367.5" y="482.5"/>
      <point x="389.5" y="457.5" type="curve"/>
      <point x="166.0" y="179.0" type="line"/>
      <point x="156.0" y="206.5"/>
      <point x="151.5" y="242.5"/>
    </contour>
  </outline>
</glyph>
<glyph name="Tcaron.sc" format="1">
  <advance width="459.5"/>
  <outline>
    <contour>
      <point x="175.5" y="0.0" type="line"/>
      <point x="284.0" y="0.0" type="line"/>
      <point x="284.0" y="484.0" type="line"/>
      <point x="442.0" y="484.0" type="line"/>
      <point x="442.0" y="577.0" type="line"/>
      <point x="17.5" y="577.0" type="line"/>
      <point x="17.5" y="484.0" type="line"/>
      <point x="175.5" y="484.0" type="line"/>
    </contour>
    <contour>
      <point x="101.5" y="673.5" type="line"/>
      <point x="234.5" y="617.0" type="line"/>
      <point x="366.5" y="673.5" type="line"/>
      <point x="366.5" y="747.5" type="line"/>
      <point x="234.0" y="691.5" type="line"/>
      <point x="101.5" y="747.5" type="line"/>
    </contour>
  </outline>
</glyph>
<glyph name="Ucircumflex.sc" format="1">
  <advance width="587.0"/>
  <outline>
    <contour>
      <point x="294.0" y="-8.0" type="curve" smooth="yes"/>
      <point x="466.0" y="-8.0"/>
      <point x="529.5" y="66.0"/>
      <point x="529.5" y="223.5" type="curve" smooth="yes"/>
      <point x="529.5" y="576.5" type="line"/>
      <point x="421.0" y="576.5" type="line"/>
      <point x="421.0" y="229.0" type="line" smooth="yes"/>
      <point x="421.0" y="124.5"/>
      <point x="385.5" y="84.5"/>
      <point x="294.0" y="84.5" type="curve" smooth="yes"/>
      <point x="203.5" y="84.5"/>
      <point x="166.0" y="126.0"/>
      <point x="166.0" y="229.0" type="curve" smooth="yes"/>
      <point x="166.0" y="576.5" type="line"/>
      <point x="57.5" y="576.5" type="line"/>
      <point x="57.5" y="223.5" type="line" smooth="yes"/>
      <point x="57.5" y="67.0"/>
      <point x="122.0" y="-8.0"/>
    </contour>
    <contour>
      <point x="158.0" y="622.5" type="line"/>
      <point x="290.0" y="678.5" type="line"/>
      <point x="422.5" y="622.5" type="line"/>
      <point x="422.5" y="697.0" type="line"/>
      <point x="290.5" y="753.0" type="line"/>
      <point x="158.0" y="697.0" type="line"/>
    </contour>
  </outline>
</glyph>
<glyph name="Udieresis.sc" format="1">
  <advance width="587.0"/>
  <outline>
    <contour>
      <point x="294.0" y="-8.0" type="curve" smooth="yes"/>
      <point x="466.0" y="-8.0"/>
      <point x="529.5" y="66.0"/>
      <point x="529.5" y="223.5" type="curve" smooth="yes"/>
      <point x="529.5" y="576.5" type="line"/>
      <point x="421.0" y="576.5" type="line"/>
      <point x="421.0" y="229.0" type="line" smooth="yes"/>
      <point x="421.0" y="124.5"/>
      <point x="385.5" y="84.5"/>
      <point x="294.0" y="84.5" type="curve" smooth="yes"/>
      <point x="203.5" y="84.5"/>
      <point x="166.0" y="126.0"/>
      <point x="166.0" y="229.0" type="curve" smooth="yes"/>
      <point x="166.0" y="576.5" type="line"/>
      <point x="57.5" y="576.5" type="line"/>
      <point x="57.5" y="223.5" type="line" smooth="yes"/>
      <point x="57.5" y="67.0"/>
      <point x="122.0" y="-8.0"/>
    </contour>
    <contour>
      <point x="191.5" y="627.0" type="curve" smooth="yes"/>
      <point x="233.0" y="627.0"/>
      <point x="253.5" y="644.5"/>
      <point x="253.5" y="686.0" type="curve" smooth="yes"/>
      <point x="253.5" y="727.0"/>
      <point x="233.0" y="745.0"/>
      <point x="191.5" y="745.0" type="curve" smooth="yes"/>
      <point x="150.0" y="745.0"/>
      <point x="130.5" y="727.5"/>
      <point x="130.5" y="686.0" type="curve" smooth="yes"/>
      <point x="130.5" y="645.0"/>
      <point x="150.0" y="627.0"/>
    </contour>
    <contour>
      <point x="388.0" y="627.0" type="curve" smooth="yes"/>
      <point x="429.0" y="627.0"/>
      <point x="450.0" y="644.5"/>
      <point x="450.0" y="686.0" type="curve" smooth="yes"/>
      <point x="450.0" y="727.0"/>
      <point x="429.0" y="745.0"/>
      <point x="388.0" y="745.0" type="curve" smooth="yes"/>
      <point x="346.5" y="745.0"/>
      <point x="326.5" y="727.5"/>
      <point x="326.5" y="686.0" type="curve" smooth="yes"/>
      <point x="326.5" y="645.0"/>
      <point x="346.5" y="627.0"/>
    </contour>
  </outline>
</glyph>
<glyph name="Udotbelow.sc" format="1">
  <advance width="587.0"/>
  <outline>
    <contour>
      <point x="294.0" y="-8.0" type="curve" smooth="yes"/>
      <point x="466.0" y="-8.0"/>
      <point x="529.5" y="66.0"/>
      <point x="529.5" y="223.5" type="curve" smooth="yes"/>
      <point x="529.5" y="576.5" type="line"/>
      <point x="421.0" y="576.5" type="line"/>
      <point x="421.0" y="229.0" type="line" smooth="yes"/>
      <point x="421.0" y="124.5"/>
      <point x="385.5" y="84.5"/>
      <point x="294.0" y="84.5" type="curve" smooth="yes"/>
      <point x="203.5" y="84.5"/>
      <point x="166.0" y="126.0"/>
      <point x="166.0" y="229.0" type="curve" smooth="yes"/>
      <point x="166.0" y="576.5" type="line"/>
      <point x="57.5" y="576.5" type="line"/>
      <point x="57.5" y="223.5" type="line" smooth="yes"/>
      <point x="57.5" y="67.0"/>
      <point x="122.0" y="-8.0"/>
    </contour>
    <contour>
      <point x="294.0" y="-155.0" type="curve" smooth="yes"/>
      <point x="329.5" y="-155.0"/>
      <point x="347.0" y="-141.5"/>
      <point x="347.0" y="-106.5" type="curve" smooth="yes"/>
      <point x="347.0" y="-72.0"/>
      <point x="329.5" y="-58.0"/>
      <point x="294.0" y="-58.0" type="curve" smooth="yes"/>
      <point x="258.0" y="-58.0"/>
      <point x="241.5" y="-72.0"/>
      <point x="241.5" y="-106.5" type="curve" smooth="yes"/>
      <point x="241.5" y="-141.0"/>
      <point x="258.0" y="-155.0"/>
    </contour>
  </outline>
</glyph>
<glyph name="Uinvertedbreve.sc" format="1">
  <advance width="587.0"/>
  <outline>
    <contour>
      <point x="294.0" y="-8.0" type="curve" smooth="yes"/>
      <point x="466.0" y="-8.0"/>
      <point x="529.5" y="66.0"/>
      <point x="529.5" y="223.5" type="curve" smooth="yes"/>
      <point x="529.5" y="576.5" type="line"/>
      <point x="421.0" y="576.5" type="line"/>
      <point x="421.0" y="229.0" type="line" smooth="yes"/>
      <point x="421.0" y="124.5"/>
      <point x="385.5" y="84.5"/>
      <point x="294.0" y="84.5" type="curve" smooth="yes"/>
      <point x="203.5" y="84.5"/>
      <point x="166.0" y="126.0"/>
      <point x="166.0" y="229.0" type="curve" smooth="yes"/>
      <point x="166.0" y="576.5" type="line"/>
      <point x="57.5" y="576.5" type="line"/>
      <point x="57.5" y="223.5" type="line" smooth="yes"/>
      <point x="57.5" y="67.0"/>
      <point x="122.0" y="-8.0"/>
    </contour>
    <contour>
      <point x="437.0" y="632.0" type="line"/>
      <point x="437.0" y="712.5"/>
      <point x="385.0" y="762.0"/>
      <point x="290.0" y="762.0" type="curve" smooth="yes"/>
      <point x="195.0" y="762.0"/>
      <point x="144.0" y="712.5"/>
      <point x="144.0" y="632.0" type="curve"/>
      <point x="219.0" y="632.0" type="line"/>
      <point x="219.0" y="686.0"/>
      <point x="240.5" y="708.5"/>
      <point x="290.0" y="708.5" type="curve" smooth="yes"/>
      <point x="340.0" y="708.5"/>
      <point x="361.5" y="686.0"/>
      <point x="361.5" y="632.0" type="curve"/>
    </contour>
  </outline>
</glyph>
<glyph name="Wgrave.sc" format="1">
  <advance width="812.0"/>
  <outline>
    <contour>
      <point x="163.0" y="0.0" type="line"/>
      <point x="293.5" y="0.0" type="line"/>
      <point x="383.5" y="325.5" type="line"/>
      <point x="404.0" y="424.5" type="line"/>
      <point x="411.0" y="424.5" type="line"/>
      <point x="430.0" y="325.5" type="line"/>
      <point x="515.5" y="0.0" type="line"/>
      <point x="646.0" y="0.0" type="line"/>
      <point x="802.0" y="577.0" type="line"/>
      <point x="682.0" y="577.0" type="line"/>
      <point x="599.5" y="213.0" type="line"/>
      <point x="581.0" y="129.5" type="line"/>
      <point x="571.5" y="129.5" type="line"/>
      <point x="553.0" y="213.0" type="line"/>
      <point x="461.5" y="577.0" type="line"/>
      <point x="354.5" y="577.0" type="line"/>
      <point x="257.5" y="213.0" type="line"/>
      <point x="238.5" y="129.5" type="line"/>
      <point x="229.0" y="129.5" type="line"/>
      <point x="211.5" y="213.0" type="line"/>
      <point x="133.5" y="577.0" type="line"/>
      <point x="13.0" y="577.0" type="line"/>
    </contour>
    <contour>
      <point x="441.5" y="624.0" type="line"/>
      <point x="379.5" y="750.0" type="line"/>
      <point x="270.0" y="750.0" type="line"/>
      <point x="362.5" y="615.5" type="line"/>
    </contour>
  </outline>
</glyph>
<glyph name="Ygrave.sc" format="1">
  <advance width="537.5"/>
  <outline>
    <contour>
      <point x="214.5" y="0.0" type="line"/>
      <point x="323.5" y="0.0" type="line"/>
      <point x="323.5" y="196.0" type="line"/>
      <point x="536.0" y="577.0" type="line"/>
      <point x="416.5" y="577.0" type="line"/>
      <point x="287.5" y="346.0" type="line"/>
      <point x="273.5" y="304.5" type="line"/>
      <point x="264.5" y="304.5" type="line"/>
      <point x="251.0" y="346.0" type="line"/>
      <point x="122.5" y="577.0" type="line"/>
      <point x="0.5" y="577.0" type="line"/>
      <point x="214.5" y="195.5" type="line"/>
    </contour>
    <contour>
      <point x="228.0" y="615.5" type="line"/>
      <point x="306.5" y="624.0" type="line"/>
      <point x="244.5" y="750.0" type="line"/>
      <point x="135.0" y="750.0" type="line"/>
    </contour>
  </outline>
</glyph>
<glyph name="Zacute.sc" format="1">
  <advance width="467.0"/>
  <outline>
    <contour>
      <point x="30.0" y="0.0" type="line"/>
      <point x="438.0" y="0.0" type="line"/>
      <point x="438.0" y="91.5" type="line"/>
      <point x="153.0" y="91.5" type="line"/>
      <point x="153.0" y="97.5" type="line"/>
      <point x="427.5" y="481.0" type="line"/>
      <point x="427.5" y="577.0" type="line"/>
      <point x="40.0" y="577.0" type="line"/>
      <point x="40.0" y="485.0" type="line"/>
      <point x="304.0" y="485.0" type="line"/>
      <point x="304.0" y="479.0" type="line"/>
      <point x="30.0" y="96.0" type="line"/>
    </contour>
    <contour>
      <point x="274.0" y="615.5" type="line"/>
      <point x="366.5" y="750.0" type="line"/>
      <point x="257.0" y="750.0" type="line"/>
      <point x="195.0" y="621.0" type="line"/>
    </contour>
  </outline>
</glyph>
<glyph name="braceleft.sc" format="1">
  <advance width="312.0"/>
  <outline>
    <contour>
      <point x="28.5" y="239.0" type="line"/>
      <point x="71.0" y="239.0"/>
      <point x="90.0" y="213.5"/>
      <point x="90.0" y="164.5" type="curve" smooth="yes"/>
      <point x="90.0" y="-29.0" type="line" smooth="yes"/>
      <point x="90.0" y="-97.5"/>
      <point x="115.0" y="-121.5"/>
      <point x="185.5" y="-121.5" type="curve" smooth="yes"/>
      <point x="208.5" y="-121.5"/>
      <point x="269.5" y="-119.5"/>
      <point x="279.0" y="-118.0" type="curve"/>
      <point x="279.0" y="-51.5" type="line"/>
      <point x="221.0" y="-51.5" type="line" smooth="yes"/>
      <point x="187.5" y="-51.5"/>
      <point x="176.0" y="-41.0"/>
      <point x="176.0" y="-14.5" type="curve" smooth="yes"/>
      <point x="176.0" y="186.0" type="line" smooth="yes"/>
      <point x="176.0" y="233.0"/>
      <point x="151.0" y="269.5"/>
      <point x="114.5" y="277.5" type="curve"/>
      <point x="151.0" y="287.0"/>
      <point x="176.0" y="323.5"/>
      <point x="176.0" y="371.0" type="curve" smooth="yes"/>
      <point x="176.0" y="570.0" type="line" smooth="yes"/>
      <point x="176.0" y="596.5"/>
      <point x="187.5" y="606.5"/>
      <point x="221.0" y="606.5" type="curve" smooth="yes"/>
      <point x="279.0" y="606.5" type="line"/>
      <point x="279.0" y="673.0" type="line"/>
      <point x="269.5" y="675.0"/>
      <point x="208.5" y="677.0"/>
      <point x="185.5" y="677.0" type="curve" smooth="yes"/>
      <point x="115.0" y="677.0"/>
      <point x="90.0" y="653.0"/>
      <point x="90.0" y="584.5" type="curve" smooth="yes"/>
      <point x="90.0" y="392.0" type="line" smooth="yes"/>
      <point x="90.0" y="343.5"/>
      <point x="71.0" y="317.5"/>
      <point x="28.5" y="317.5" type="curve"/>
    </contour>
  </outline>
</glyph>
<glyph name="comma.tab" format="1">
  <advance width="270.0"/>
  <outline>
    <contour>
      <point x="132.5" y="-155.0" type="line"/>
      <point x="210.0" y="122.5" type="line"/>
      <point x="93.5" y="122.5" type="line"/>
      <point x="46.0" y="-145.0" type="line"/>
    </contour>
  </outline>
</glyph>
<glyph name="currency.ss01" format="1">
  <advance width="566.0"/>
  <outline>
    <contour>
      <point x="154.5" y="-150.0" type="line"/>
      <point x="241.0" y="-150.0" type="line"/>
      <point x="241.0" y="45.0" type="line"/>
      <point x="154.5" y="43.0" type="line"/>
    </contour>
    <contour>
      <point x="154.5" y="703.0" type="line"/>
      <point x="241.0" y="707.0" type="line"/>
      <point x="241.0" y="890.0" type="line"/>
      <point x="154.5" y="890.0" type="line"/>
    </contour>
    <contour>
      <point x="313.0" y="-150.0" type="line"/>
      <point x="400.5" y="-150.0" type="line"/>
      <point x="400.5" y="45.0" type="line"/>
      <point x="313.0" y="43.0" type="line"/>
    </contour>
    <contour>
      <point x="313.0" y="703.0" type="line"/>
      <point x="400.5" y="707.0" type="line"/>
      <point x="400.5" y="890.0" type="line"/>
      <point x="313.0" y="890.0" type="line"/>
    </contour>
    <component base="B" xOffset="4.0"/>
  </outline>
</glyph>
<glyph name="dieresis.cap" format="1">
  <advance width="436.0"/>
  <outline>
    <contour>
      <point x="217.5" y="782.5" type="move" name="_topUC"/>
    </contour>
    <contour>
      <point x="109.5" y="806.0" type="curve" smooth="yes"/>
      <point x="153.0" y="806.0"/>
      <point x="176.0" y="825.0"/>
      <point x="176.0" y="870.5" type="curve" smooth="yes"/>
      <point x="176.0" y="915.5"/>
      <point x="153.0" y="935.0"/>
      <point x="109.5" y="935.0" type="curve" smooth="yes"/>
      <point x="65.0" y="935.0"/>
      <point x="44.0" y="916.0"/>
      <point x="44.0" y="870.5" type="curve" smooth="yes"/>
      <point x="44.0" y="825.5"/>
      <point x="65.0" y="806.0"/>
    </contour>
    <contour>
      <point x="325.0" y="806.0" type="curve" smooth="yes"/>
      <point x="368.0" y="806.0"/>
      <point x="391.5" y="825.0"/>
      <point x="391.5" y="870.5" type="curve" smooth="yes"/>
      <point x="391.5" y="915.5"/>
      <point x="368.0" y="935.0"/>
      <point x="325.0" y="935.0" type="curve" smooth="yes"/>
      <point x="280.5" y="935.0"/>
      <point x="259.0" y="916.0"/>
      <point x="259.0" y="870.5" type="curve" smooth="yes"/>
      <point x="259.0" y="825.5"/>
      <point x="280.5" y="806.0"/>
    </contour>
  </outline>
</glyph>
<glyph name="eight.denominator" format="1">
  <advance width="402.5"/>
  <outline>
    <contour>
      <point x="201.0" y="-2.0" type="curve" smooth="yes"/>
      <point x="306.5" y="-2.0"/>
      <point x="371.5" y="56.0"/>
      <point x="371.5" y="150.0" type="curve" smooth="yes"/>
      <point x="371.5" y="214.0"/>
      <point x="349.0" y="255.5"/>
      <point x="297.0" y="284.5" type="curve"/>
      <point x="340.0" y="309.5"/>
      <point x="358.0" y="346.5"/>
      <point x="358.0" y="408.5" type="curve" smooth="yes"/>
      <point x="358.0" y="497.5"/>
      <point x="297.5" y="553.0"/>
      <point x="201.0" y="553.0" type="curve" smooth="yes"/>
      <point x="105.0" y="553.0"/>
      <point x="44.0" y="497.0"/>
      <point x="44.0" y="408.5" type="curve" smooth="yes"/>
      <point x="44.0" y="349.0"/>
      <point x="64.0" y="307.5"/>
      <point x="107.0" y="279.0" type="curve"/>
      <point x="54.5" y="247.5"/>
      <point x="31.0" y="203.0"/>
      <point x="31.0" y="138.0" type="curve" smooth="yes"/>
      <point x="31.0" y="52.0"/>
      <point x="96.0" y="-2.0"/>
    </contour>
    <contour>
      <point x="201.0" y="71.0" type="curve" smooth="yes"/>
      <point x="149.0" y="71.0"/>
      <point x="116.0" y="102.0"/>
      <point x="116.0" y="150.5" type="curve" smooth="yes"/>
      <point x="116.0" y="195.5"/>
      <point x="133.5" y="222.5"/>
      <point x="183.0" y="249.0" type="curve"/>
      <point x="202.5" y="242.0" type="line" smooth="yes"/>
      <point x="265.0" y="221.0"/>
      <point x="286.5" y="196.5"/>
      <point x="286.5" y="149.5" type="curve" smooth="yes"/>
      <point x="286.5" y="100.5"/>
      <point x="253.5" y="71.0"/>
    </contour>
    <contour>
      <point x="215.5" y="310.0" type="curve"/>
      <point x="204.5" y="313.0" type="line" smooth="yes"/>
      <point x="149.5" y="330.5"/>
      <point x="126.5" y="355.5"/>
      <point x="126.5" y="401.5" type="curve" smooth="yes"/>
      <point x="126.5" y="448.5"/>
      <point x="154.0" y="478.0"/>
      <point x="201.0" y="478.0" type="curve" smooth="yes"/>
      <point x="248.0" y="478.0"/>
      <point x="275.5" y="451.5"/>
      <point x="275.5" y="403.0" type="curve" smooth="yes"/>
      <point x="275.5" y="357.0"/>
      <point x="257.5" y="329.0"/>
    </contour>
  </outline>
</glyph>
<glyph name="eight.tf" format="1">
  <advance width="540.0"/>
  <outline>
    <contour>
      <point x="270.0" y="-3.0" type="curve" smooth="yes"/>
      <point x="405.5" y="-3.0"/>
      <point x="488.0" y="72.5"/>
      <point x="488.0" y="201.5" type="curve" smooth="yes"/>
      <point x="488.0" y="298.0"/>
      <point x="446.0" y="351.0"/>
      <point x="380.5" y="384.0" type="curve"/>
      <point x="442.5" y="418.5"/>
      <point x="470.5" y="468.5"/>
      <point x="470.5" y="554.5" type="curve" smooth="yes"/>
      <point x="470.5" y="676.5"/>
      <point x="393.5" y="749.0"/>
      <point x="270.5" y="749.0" type="curve" smooth="yes"/>
      <point x="146.5" y="749.0"/>
      <point x="69.5" y="675.0"/>
      <point x="69.5" y="556.5" type="curve" smooth="yes"/>
      <point x="69.5" y="467.0"/>
      <point x="102.5" y="413.0"/>
      <point x="160.5" y="377.5" type="curve"/>
      <point x="84.0" y="336.5"/>
      <point x="52.0" y="269.5"/>
      <point x="52.0" y="185.5" type="curve" smooth="yes"/>
      <point x="52.0" y="66.0"/>
      <point x="135.0" y="-3.0"/>
    </contour>
    <contour>
      <point x="270.0" y="74.0" type="curve" smooth="yes"/>
      <point x="200.5" y="74.0"/>
      <point x="157.0" y="117.5"/>
      <point x="157.0" y="202.0" type="curve" smooth="yes"/>
      <point x="157.0" y="263.0"/>
      <point x="185.0" y="307.0"/>
      <point x="244.5" y="339.0" type="curve"/>
      <point x="322.0" y="313.5"/>
      <point x="383.0" y="284.0"/>
      <point x="383.0" y="193.5" type="curve" smooth="yes"/>
      <point x="383.0" y="114.0"/>
      <point x="338.5" y="74.0"/>
    </contour>
    <contour>
      <point x="270.5" y="669.0" type="curve" smooth="yes"/>
      <point x="333.5" y="669.0"/>
      <point x="369.0" y="630.0"/>
      <point x="369.0" y="554.0" type="curve" smooth="yes"/>
      <point x="369.0" y="488.5"/>
      <point x="345.5" y="446.0"/>
      <point x="291.5" y="417.5" type="curve"/>
      <point x="214.5" y="442.5"/>
      <point x="171.0" y="476.0"/>
      <point x="171.0" y="549.5" type="curve" smooth="yes"/>
      <point x="171.0" y="626.5"/>
      <point x="208.0" y="669.0"/>
    </contour>
  </outline>
</glyph>
<glyph name="equal.tab" format="1">
  <advance width="540.0"/>
  <outline>
    <contour>
      <point x="58.0" y="201.5" type="line"/>
      <point x="482.0" y="201.5" type="line"/>
      <point x="482.0" y="287.5" type="line"/>
      <point x="58.0" y="287.5" type="line"/>
    </contour>
    <contour>
      <point x="58.0" y="418.5" type="line"/>
      <point x="482.0" y="418.5" type="line"/>
      <point x="482.0" y="504.5" type="line"/>
      <point x="58.0" y="504.5" type="line"/>
    </contour>
  </outline>
</glyph>
<glyph name="five.denominator" format="1">
  <advance width="343.0"/>
  <outline>
    <contour>
      <point x="130.5" y="-8.0" type="curve" smooth="yes"/>
      <point x="249.5" y="-8.0"/>
      <point x="318.0" y="55.0"/>
      <point x="318.0" y="164.5" type="curve" smooth="yes"/>
      <point x="318.0" y="276.5"/>
      <point x="263.0" y="324.5"/>
      <point x="126.0" y="328.5" type="curve"/>
      <point x="136.0" y="463.0" type="line"/>
      <point x="290.0" y="463.0" type="line"/>
      <point x="290.0" y="546.0" type="line"/>
      <point x="58.5" y="546.0" type="line"/>
      <point x="38.5" y="263.0" type="line"/>
      <point x="45.5" y="256.5" type="line"/>
      <point x="92.0" y="256.5" type="line" smooth="yes"/>
      <point x="186.0" y="256.5"/>
      <point x="218.0" y="231.5"/>
      <point x="218.0" y="164.5" type="curve" smooth="yes"/>
      <point x="218.0" y="105.5"/>
      <point x="186.5" y="73.5"/>
      <point x="124.5" y="73.5" type="curve" smooth="yes"/>
      <point x="105.0" y="73.5"/>
      <point x="83.5" y="76.5"/>
      <point x="57.5" y="82.5" type="curve"/>
      <point x="33.5" y="82.5" type="line"/>
      <point x="33.5" y="3.5" type="line"/>
      <point x="74.0" y="-4.5"/>
      <point x="104.0" y="-8.0"/>
    </contour>
  </outline>
</glyph>
<glyph name="five.tosf" format="1">
  <advance width="540.0"/>
  <outline>
    <contour>
      <point x="208.5" y="-169.5" type="curve" smooth="yes"/>
      <point x="375.5" y="-169.5"/>
      <point x="472.5" y="-84.5"/>
      <point x="472.5" y="61.0" type="curve" smooth="yes"/>
      <point x="472.5" y="215.5"/>
      <point x="391.5" y="278.5"/>
      <point x="188.5" y="281.0" type="curve"/>
      <point x="204.0" y="485.5" type="line"/>
      <point x="442.5" y="485.5" type="line"/>
      <point x="442.5" y="582.5" type="line"/>
      <point x="112.5" y="582.5" type="line"/>
      <point x="84.0" y="201.0" type="line"/>
      <point x="88.5" y="197.0" type="line"/>
      <point x="153.5" y="197.0" type="line" smooth="yes"/>
      <point x="301.5" y="197.0"/>
      <point x="353.5" y="161.0"/>
      <point x="353.5" y="61.0" type="curve" smooth="yes"/>
      <point x="353.5" y="-26.0"/>
      <point x="301.0" y="-72.5"/>
      <point x="200.5" y="-72.5" type="curve" smooth="yes"/>
      <point x="172.0" y="-72.5"/>
      <point x="140.0" y="-68.5"/>
      <point x="101.5" y="-60.5" type="curve"/>
      <point x="76.0" y="-60.5" type="line"/>
      <point x="76.0" y="-154.5" type="line"/>
      <point x="129.0" y="-165.0"/>
      <point x="170.5" y="-169.5"/>
    </contour>
  </outline>
</glyph>
<glyph name="four.osf" format="1">
  <advance width="515.5"/>
  <outline>
    <contour>
      <point x="30.0" y="15.0" type="line"/>
      <point x="497.0" y="15.0" type="line"/>
      <point x="497.0" y="101.0" type="line"/>
      <point x="130.0" y="101.0" type="line"/>
      <point x="130.0" y="106.0" type="line"/>
      <point x="368.0" y="578.0" type="line"/>
      <point x="363.5" y="582.5" type="line"/>
      <point x="257.5" y="592.5" type="line"/>
      <point x="252.0" y="592.5" type="line"/>
      <point x="12.0" y="85.5" type="line"/>
      <point x="12.0" y="81.5" type="line"/>
    </contour>
    <contour>
      <point x="309.5" y="-164.5" type="line"/>
      <point x="424.0" y="-164.5" type="line"/>
      <point x="424.0" y="335.0" type="line"/>
      <point x="340.0" y="335.0" type="line"/>
      <point x="309.5" y="85.5" type="line"/>
    </contour>
  </outline>
</glyph>
<glyph name="four.tf" format="1">
  <advance width="540.0"/>
  <outline>
    <contour>
      <point x="40.5" y="167.5" type="line"/>
      <point x="322.0" y="167.5" type="line"/>
      <point x="322.0" y="0.0" type="line"/>
      <point x="437.0" y="0.0" type="line"/>
      <point x="437.0" y="167.5" type="line"/>
      <point x="510.5" y="167.5" type="line"/>
      <point x="510.5" y="253.5" type="line"/>
      <point x="437.0" y="253.5" type="line"/>
      <point x="437.0" y="492.5" type="line"/>
      <point x="352.5" y="492.5" type="line"/>
      <point x="328.0" y="253.5" type="line"/>
      <point x="141.0" y="253.5" type="line"/>
      <point x="141.0" y="258.5" type="line"/>
      <point x="380.5" y="735.5" type="line"/>
      <point x="376.0" y="740.0" type="line"/>
      <point x="269.5" y="750.0" type="line"/>
      <point x="264.0" y="750.0" type="line"/>
      <point x="22.5" y="238.0" type="line"/>
      <point x="22.5" y="234.0" type="line"/>
    </contour>
  </outline>
</glyph>
<glyph name="four.tosf" format="1">
  <advance width="540.0"/>
  <outline>
    <contour>
      <point x="40.5" y="15.0" type="line"/>
      <point x="322.0" y="15.0" type="line"/>
      <point x="322.0" y="-164.5" type="line"/>
      <point x="437.0" y="-164.5" type="line"/>
      <point x="437.0" y="15.0" type="line"/>
      <point x="510.5" y="15.0" type="line"/>
      <point x="510.5" y="101.0" type="line"/>
      <point x="437.0" y="101.0" type="line"/>
      <point x="437.0" y="335.0" type="line"/>
      <point x="352.5" y="335.0" type="line"/>
      <point x="332.5" y="130.5" type="line"/>
      <point x="328.5" y="101.0" type="line"/>
      <point x="141.0" y="101.0" type="line"/>
      <point x="141.0" y="106.0" type="line"/>
      <point x="380.5" y="578.0" type="line"/>
      <point x="376.0" y="582.5" type="line"/>
      <point x="269.5" y="592.5" type="line"/>
      <point x="264.0" y="592.5" type="line"/>
      <point x="22.5" y="85.5" type="line"/>
      <point x="22.5" y="81.5" type="line"/>
    </contour>
  </outline>
</glyph>
<glyph name="grave.cap" format="1">
  <advance width="240.5"/>
  <outline>
    <contour>
      <point x="172.0" y="782.5" type="move" name="_topUC"/>
    </contour>
    <contour>
      <point x="210.0" y="799.0" type="line"/>
      <point x="138.5" y="949.0" type="line"/>
      <point x="22.5" y="949.0" type="line"/>
      <point x="126.5" y="787.0" type="line"/>
    </contour>
  </outline>
</glyph>
<glyph name="one.denominator" format="1">
  <advance width="290.5"/>
  <outline>
    <contour>
      <point x="131.5" y="0.0" type="line"/>
      <point x="231.0" y="0.0" type="line"/>
      <point x="231.0" y="546.0" type="line"/>
      <point x="159.0" y="546.0" type="line"/>
      <point x="13.5" y="449.0" type="line"/>
      <point x="11.0" y="433.5" type="line"/>
      <point x="30.5" y="389.0" type="line"/>
      <point x="45.5" y="389.0" type="line"/>
      <point x="131.5" y="436.0" type="line"/>
    </contour>
  </outline>
</glyph>
<glyph name="one.tf" format="1">
  <advance width="540.0"/>
  <outline>
    <contour>
      <point x="280.0" y="0.0" type="line"/>
      <point x="400.0" y="0.0" type="line"/>
      <point x="400.0" y="740.0" type="line"/>
      <point x="314.5" y="740.0" type="line"/>
      <point x="81.5" y="608.5" type="line"/>
      <point x="78.5" y="593.5" type="line"/>
      <point x="106.0" y="539.0" type="line"/>
      <point x="121.0" y="539.0" type="line"/>
      <point x="275.5" y="609.5" type="line"/>
      <point x="280.0" y="609.5" type="line"/>
    </contour>
  </outline>
</glyph>
<glyph name="seven.denominator" format="1">
  <advance width="317.0"/>
  <outline>
    <contour>
      <point x="126.0" y="-10.0" type="line"/>
      <point x="56.5" y="1.5" type="line"/>
      <point x="46.5" y="24.0" type="line"/>
      <point x="220.5" y="505.5" type="line"/>
      <point x="254.0" y="460.0" type="line"/>
      <point x="21.0" y="460.0" type="line"/>
      <point x="21.0" y="531.5" type="line"/>
      <point x="32.0" y="540.0" type="line"/>
      <point x="282.5" y="540.0" type="line"/>
      <point x="304.5" y="499.5" type="line"/>
      <point x="304.5" y="471.5" type="line"/>
      <point x="141.0" y="1.0" type="line"/>
    </contour>
  </outline>
</glyph>
<glyph name="six.numerator" format="1">
  <advance width="405.0"/>
  <outline>
    <contour>
      <point x="208.5" y="192.5" type="curve" smooth="yes"/>
      <point x="314.0" y="192.5"/>
      <point x="381.0" y="266.5"/>
      <point x="381.0" y="381.0" type="curve" smooth="yes"/>
      <point x="381.0" y="479.0"/>
      <point x="320.5" y="540.0"/>
      <point x="226.0" y="540.0" type="curve" smooth="yes"/>
      <point x="190.5" y="540.0"/>
      <point x="154.0" y="527.0"/>
      <point x="125.0" y="503.5" type="curve"/>
      <point x="136.0" y="617.0"/>
      <point x="181.5" y="674.5"/>
      <point x="260.5" y="674.5" type="curve" smooth="yes"/>
      <point x="283.5" y="674.5"/>
      <point x="308.5" y="670.5"/>
      <point x="343.0" y="661.0" type="curve"/>
      <point x="352.5" y="740.0" type="line"/>
      <point x="316.5" y="749.5"/>
      <point x="285.5" y="754.5"/>
      <point x="258.5" y="754.5" type="curve" smooth="yes"/>
      <point x="110.5" y="754.5"/>
      <point x="31.5" y="644.5"/>
      <point x="31.5" y="444.5" type="curve" smooth="yes"/>
      <point x="31.5" y="280.5"/>
      <point x="93.5" y="192.5"/>
    </contour>
    <contour>
      <point x="208.5" y="276.5" type="curve" smooth="yes"/>
      <point x="150.5" y="276.5"/>
      <point x="123.5" y="326.0"/>
      <point x="121.5" y="432.0" type="curve"/>
      <point x="147.0" y="457.0"/>
      <point x="180.5" y="473.5"/>
      <point x="208.0" y="473.5" type="curve" smooth="yes"/>
      <point x="261.5" y="473.5"/>
      <point x="289.5" y="441.5"/>
      <point x="289.5" y="379.0" type="curve" smooth="yes"/>
      <point x="289.5" y="314.5"/>
      <point x="259.5" y="276.5"/>
    </contour>
  </outline>
</glyph>
<glyph name="three.tosf" format="1">
  <advance width="540.0"/>
  <outline>
    <contour>
      <point x="207.5" y="-172.5" type="curve" smooth="yes"/>
      <point x="374.0" y="-172.5"/>
      <point x="472.0" y="-97.0"/>
      <point x="472.0" y="30.0" type="curve" smooth="yes"/>
      <point x="472.0" y="131.5"/>
      <point x="416.5" y="196.5"/>
      <point x="313.0" y="217.0" type="curve"/>
      <point x="313.0" y="221.0" type="line"/>
      <point x="401.0" y="242.0"/>
      <point x="449.0" y="305.0"/>
      <point x="449.0" y="401.5" type="curve" smooth="yes"/>
      <point x="449.0" y="523.5"/>
      <point x="368.5" y="586.0"/>
      <point x="208.0" y="586.0" type="curve" smooth="yes"/>
      <point x="161.5" y="586.0"/>
      <point x="117.0" y="581.0"/>
      <point x="71.5" y="570.0" type="curve"/>
      <point x="77.0" y="480.5" type="line"/>
      <point x="85.0" y="480.5" type="line"/>
      <point x="132.0" y="490.0"/>
      <point x="168.0" y="494.0"/>
      <point x="199.0" y="494.0" type="curve" smooth="yes"/>
      <point x="288.5" y="494.0"/>
      <point x="331.0" y="457.0"/>
      <point x="331.0" y="379.5" type="curve" smooth="yes"/>
      <point x="331.0" y="297.5"/>
      <point x="280.0" y="259.5"/>
      <point x="169.0" y="259.5" type="curve" smooth="yes"/>
      <point x="143.0" y="259.5" type="line"/>
      <point x="143.0" y="171.5" type="line"/>
      <point x="169.0" y="171.5" type="line" smooth="yes"/>
      <point x="298.0" y="171.5"/>
      <point x="353.5" y="128.5"/>
      <point x="353.5" y="38.0" type="curve" smooth="yes"/>
      <point x="353.5" y="-42.5"/>
      <point x="299.5" y="-83.5"/>
      <point x="191.5" y="-83.5" type="curve" smooth="yes"/>
      <point x="150.5" y="-83.5"/>
      <point x="111.0" y="-79.0"/>
      <point x="81.5" y="-69.5" type="curve"/>
      <point x="74.5" y="-69.5" type="line"/>
      <point x="74.5" y="-159.5" type="line"/>
      <point x="121.5" y="-169.0"/>
      <point x="165.0" y="-172.5"/>
    </contour>
  </outline>
</glyph>
<glyph name="two.tf" format="1">
  <advance width="540.0"/>
  <outline>
    <contour>
      <point x="61.0" y="0.0" type="line"/>
      <point x="470.5" y="0.0" type="line"/>
      <point x="470.5" y="98.0" type="line"/>
      <point x="177.5" y="98.0" type="line"/>
      <point x="177.5" y="136.0" type="line" smooth="yes"/>
      <point x="177.5" y="205.0"/>
      <point x="203.5" y="244.0"/>
      <point x="316.5" y="321.5" type="curve" smooth="yes"/>
      <point x="429.5" y="397.5"/>
      <point x="473.5" y="465.0"/>
      <point x="473.5" y="560.5" type="curve" smooth="yes"/>
      <point x="473.5" y="685.5"/>
      <point x="401.0" y="749.5"/>
      <point x="259.5" y="749.5" type="curve" smooth="yes"/>
      <point x="207.5" y="749.5"/>
      <point x="146.0" y="741.0"/>
      <point x="78.0" y="723.0" type="curve"/>
      <point x="91.0" y="630.5" type="line"/>
      <point x="144.0" y="645.5"/>
      <point x="189.5" y="653.0"/>
      <point x="227.5" y="653.0" type="curve" smooth="yes"/>
      <point x="316.0" y="653.0"/>
      <point x="357.5" y="618.5"/>
      <point x="357.5" y="547.5" type="curve" smooth="yes"/>
      <point x="357.5" y="484.5"/>
      <point x="326.0" y="442.0"/>
      <point x="235.5" y="384.0" type="curve" smooth="yes"/>
      <point x="107.0" y="303.5"/>
      <point x="61.0" y="230.0"/>
      <point x="61.0" y="111.5" type="curve" smooth="yes"/>
    </contour>
  </outline>
</glyph>
<glyph name="underscore.tab" format="1">
  <advance width="540.0"/>
  <outline>
    <contour>
      <point x="56.0" y="-145.0" type="line"/>
      <point x="483.0" y="-145.0" type="line"/>
      <point x="483.0" y="-60.0" type="line"/>
      <point x="56.0" y="-60.0" type="line"/>
    </contour>
  </outline>
</glyph>
<glyph name="uni0162.sc" format="1">
  <advance width="459.0"/>
  <outline>
    <contour>
      <point x="199.5" y="-172.0" type="curve" smooth="yes"/>
      <point x="265.5" y="-172.0"/>
      <point x="300.5" y="-139.5"/>
      <point x="300.5" y="-87.5" type="curve" smooth="yes"/>
      <point x="300.5" y="-58.0"/>
      <point x="290.0" y="-31.5"/>
      <point x="269.5" y="0.0" type="curve"/>
      <point x="283.5" y="0.0" type="line"/>
      <point x="283.5" y="484.0" type="line"/>
      <point x="441.5" y="484.0" type="line"/>
      <point x="441.5" y="577.0" type="line"/>
      <point x="17.0" y="577.0" type="line"/>
      <point x="17.0" y="484.0" type="line"/>
      <point x="175.0" y="484.0" type="line"/>
      <point x="175.0" y="0.0" type="line"/>
      <point x="201.0" y="0.0" type="line"/>
      <point x="217.5" y="-26.0"/>
      <point x="227.5" y="-51.5"/>
      <point x="227.5" y="-71.0" type="curve" smooth="yes"/>
      <point x="227.5" y="-91.5"/>
      <point x="214.5" y="-104.5"/>
      <point x="185.0" y="-104.5" type="curve" smooth="yes"/>
      <point x="174.5" y="-104.5"/>
      <point x="152.5" y="-102.5"/>
      <point x="132.0" y="-98.0" type="curve"/>
      <point x="132.0" y="-163.0" type="line"/>
      <point x="157.0" y="-169.0"/>
      <point x="181.5" y="-172.0"/>
    </contour>
  </outline>
</glyph>
<glyph name="uni0311.cap" format="1">
  <advance width="389.5"/>
  <outline>
    <contour>
      <point x="194.0" y="782.5" type="move" name="_topUC"/>
    </contour>
    <contour>
      <point x="356.5" y="813.0" type="line"/>
      <point x="356.5" y="912.0"/>
      <point x="297.5" y="972.0"/>
      <point x="194.5" y="972.0" type="curve" smooth="yes"/>
      <point x="90.5" y="972.0"/>
      <point x="32.5" y="912.0"/>
      <point x="32.5" y="813.0" type="curve"/>
      <point x="113.0" y="813.0" type="line"/>
      <point x="113.0" y="881.5"/>
      <point x="138.0" y="912.0"/>
      <point x="194.5" y="912.0" type="curve" smooth="yes"/>
      <point x="250.0" y="912.0"/>
      <point x="275.5" y="881.5"/>
      <point x="275.5" y="813.0" type="curve"/>
    </contour>
  </outline>
</glyph>
<glyph name="yen.tab" format="1">
  <advance width="540.0"/>
  <outline>
    <contour>
      <point x="60.0" y="246.5" type="line"/>
      <point x="215.0" y="246.5" type="line"/>
      <point x="215.0" y="166.0" type="line"/>
      <point x="60.0" y="166.0" type="line"/>
      <point x="60.0" y="84.0" type="line"/>
      <point x="215.0" y="84.0" type="line"/>
      <point x="215.0" y="0.0" type="line"/>
      <point x="327.0" y="0.0" type="line"/>
      <point x="327.0" y="84.0" type="line"/>
      <point x="479.5" y="84.0" type="line"/>
      <point x="479.5" y="166.0" type="line"/>
      <point x="327.0" y="166.0" type="line"/>
      <point x="327.0" y="246.5" type="line"/>
      <point x="479.5" y="246.5" type="line"/>
      <point x="479.5" y="328.5" type="line"/>
      <point x="363.5" y="328.5" type="line"/>
      <point x="554.5" y="740.0" type="line"/>
      <point x="431.0" y="740.0" type="line"/>
      <point x="275.5" y="366.5" type="line"/>
      <point x="267.0" y="366.5" type="line"/>
      <point x="112.0" y="740.0" type="line"/>
      <point x="-14.0" y="740.0" type="line"/>
      <point x="177.0" y="328.5" type="line"/>
      <point x="60.0" y="328.5" type="line"/>
    </contour>
  </outline>
</glyph>
